<?xml version="1.0" encoding="utf-8"?>
<!-- Generator: Adobe Illustrator 25.4.8, SVG Export Plug-In . SVG Version: 6.00 Build 0)  -->
<svg version="1.1" id="Warstwa_1" xmlns="http://www.w3.org/2000/svg" xmlns:xlink="http://www.w3.org/1999/xlink" x="0px" y="0px"
	 viewBox="0 0 500 500" style="enable-background:new 0 0 200 200;" xml:space="preserve">
<g>
	<path d="M343.4,242.8c-0.5,0-0.9-0.1-1.2-0.2c-0.4-0.2-0.7-0.4-0.9-0.7c-0.2-0.3-0.3-0.7-0.3-1.2h0.6c0,0.4,0.1,0.6,0.3,0.9
		c0.2,0.2,0.4,0.4,0.7,0.5c0.3,0.1,0.6,0.2,0.9,0.2c0.4,0,0.7-0.1,1-0.2c0.3-0.1,0.5-0.3,0.6-0.5s0.2-0.4,0.2-0.6
		c0-0.3-0.1-0.6-0.3-0.8c-0.2-0.2-0.5-0.4-0.9-0.5l-1.1-0.4c-0.6-0.2-1-0.4-1.3-0.7c-0.3-0.3-0.4-0.6-0.4-1.1c0-0.5,0.2-0.9,0.6-1.3
		c0.4-0.3,1-0.5,1.7-0.5c0.7,0,1.2,0.2,1.6,0.5c0.4,0.3,0.6,0.7,0.7,1.2h-0.6c-0.1-0.3-0.2-0.6-0.5-0.8c-0.3-0.2-0.6-0.3-1.1-0.3
		c-0.5,0-0.9,0.1-1.2,0.3c-0.3,0.2-0.4,0.5-0.4,0.9c0,0.3,0.1,0.5,0.3,0.7c0.2,0.2,0.5,0.3,0.8,0.4l1.4,0.4c0.5,0.2,0.9,0.4,1.2,0.7
		c0.3,0.3,0.4,0.7,0.4,1.2c0,0.3-0.1,0.7-0.3,1c-0.2,0.3-0.5,0.5-0.8,0.7C344.4,242.7,343.9,242.8,343.4,242.8z"/>
	<path d="M348.1,242.7l2.4-6.9h0.8l2.4,6.9h-0.7l-0.6-1.9h-2.8l-0.7,1.9H348.1z M349.6,240.2h2.5l-1.3-3.7L349.6,240.2z"/>
	<path d="M356.9,235.8v6.3h3.2v0.6h-3.9v-6.9H356.9z"/>
	<path d="M364.8,242.8c-0.6,0-1-0.1-1.5-0.4c-0.4-0.3-0.8-0.7-1-1.2c-0.3-0.5-0.4-1.2-0.4-2c0-0.8,0.1-1.5,0.4-2
		c0.3-0.5,0.6-0.9,1-1.2c0.4-0.3,0.9-0.4,1.5-0.4c0.5,0,1,0.1,1.5,0.4c0.4,0.3,0.8,0.7,1,1.2c0.3,0.5,0.4,1.2,0.4,2s-0.1,1.5-0.4,2
		c-0.3,0.5-0.6,0.9-1,1.2C365.8,242.7,365.3,242.8,364.8,242.8z M364.8,242.2c0.7,0,1.2-0.2,1.6-0.7c0.4-0.5,0.6-1.2,0.6-2.2
		c0-1-0.2-1.7-0.6-2.2c-0.4-0.5-0.9-0.8-1.6-0.8c-0.7,0-1.2,0.3-1.6,0.8c-0.4,0.5-0.6,1.3-0.6,2.2c0,1,0.2,1.7,0.6,2.2
		C363.5,241.9,364.1,242.2,364.8,242.2z"/>
	<path d="M370.6,235.8h0.8l3.7,6.1H375v-6.1h0.6v6.9h-0.8l-3.8-6.2h0.1v6.2h-0.6V235.8z"/>
	<path d="M382.9,235.8h0.7v6.9h-0.7V235.8z M386.8,235.8h0.9l-4.3,4.5v-0.9L386.8,235.8z M384.6,238.7l3.3,4H387l-2.9-3.5
		L384.6,238.7z"/>
	<path d="M392.9,242.8c-0.6,0-1-0.1-1.5-0.4c-0.4-0.3-0.8-0.7-1-1.2c-0.3-0.5-0.4-1.2-0.4-2c0-0.8,0.1-1.5,0.4-2
		c0.3-0.5,0.6-0.9,1-1.2c0.4-0.3,0.9-0.4,1.5-0.4c0.5,0,1,0.1,1.5,0.4s0.8,0.7,1,1.2c0.3,0.5,0.4,1.2,0.4,2s-0.1,1.5-0.4,2
		c-0.3,0.5-0.6,0.9-1,1.2C393.9,242.7,393.4,242.8,392.9,242.8z M392.9,242.2c0.7,0,1.2-0.2,1.6-0.7s0.6-1.2,0.6-2.2
		c0-1-0.2-1.7-0.6-2.2c-0.4-0.5-0.9-0.8-1.6-0.8c-0.7,0-1.2,0.3-1.6,0.8c-0.4,0.5-0.6,1.3-0.6,2.2c0,1,0.2,1.7,0.6,2.2
		C391.6,241.9,392.2,242.2,392.9,242.2z"/>
	<path d="M400.8,242.8c-0.5,0-0.9-0.1-1.2-0.2c-0.4-0.2-0.7-0.4-0.9-0.7c-0.2-0.3-0.3-0.7-0.3-1.2h0.6c0,0.4,0.1,0.6,0.3,0.9
		c0.2,0.2,0.4,0.4,0.7,0.5c0.3,0.1,0.6,0.2,0.9,0.2c0.4,0,0.7-0.1,1-0.2c0.3-0.1,0.5-0.3,0.6-0.5s0.2-0.4,0.2-0.6
		c0-0.3-0.1-0.6-0.3-0.8c-0.2-0.2-0.5-0.4-0.9-0.5l-1.1-0.4c-0.6-0.2-1-0.4-1.3-0.7c-0.3-0.3-0.4-0.6-0.4-1.1c0-0.5,0.2-0.9,0.6-1.3
		c0.4-0.3,1-0.5,1.7-0.5c0.7,0,1.2,0.2,1.6,0.5c0.4,0.3,0.6,0.7,0.7,1.2h-0.6c-0.1-0.3-0.2-0.6-0.5-0.8c-0.3-0.2-0.6-0.3-1.1-0.3
		c-0.5,0-0.9,0.1-1.2,0.3c-0.3,0.2-0.4,0.5-0.4,0.9c0,0.3,0.1,0.5,0.3,0.7c0.2,0.2,0.5,0.3,0.8,0.4l1.4,0.4c0.5,0.2,0.9,0.4,1.2,0.7
		c0.3,0.3,0.4,0.7,0.4,1.2c0,0.3-0.1,0.7-0.3,1c-0.2,0.3-0.5,0.5-0.8,0.7C401.8,242.7,401.3,242.8,400.8,242.8z"/>
	<path d="M406.4,235.8h0.9l2.6,5.1h-0.1l2.6-5.1h0.9v6.9h-0.7v-6.3h0.1l-2.7,5.4h-0.4l-2.7-5.3h0.1v6.3h-0.6V235.8z"/>
	<path d="M416.8,242.7v-6.9h4.2v0.6h-3.5v2.6h3.3v0.6h-3.3v2.7h3.5v0.6H416.8z"/>
	<path d="M423,236.3v-0.6h5.3v0.6h-2.5l0.1-0.2v6.5h-0.6v-6.5l0.1,0.2H423z"/>
	<path d="M429.6,235.8h0.8l2.2,3.6h-0.2l2.2-3.6h0.8l-2.5,4.1v2.8h-0.7v-2.8L429.6,235.8z"/>
	<path d="M439.9,242.8c-0.6,0-1.1-0.2-1.6-0.5c-0.4-0.3-0.8-0.7-1-1.3c-0.2-0.5-0.3-1.2-0.3-1.9c0-0.8,0.1-1.4,0.4-1.9
		c0.3-0.5,0.6-0.9,1.1-1.2c0.4-0.3,0.9-0.4,1.5-0.4c0.7,0,1.3,0.2,1.7,0.5c0.4,0.4,0.8,0.8,1,1.4l-0.7,0.2c-0.2-0.5-0.4-0.8-0.8-1.1
		c-0.4-0.3-0.8-0.4-1.2-0.4c-0.4,0-0.8,0.1-1.1,0.3c-0.3,0.2-0.6,0.6-0.8,1s-0.3,1-0.3,1.6c0,0.6,0.1,1.1,0.2,1.5s0.4,0.8,0.7,1.1
		c0.3,0.3,0.7,0.4,1.3,0.4c0.6,0,1.1-0.2,1.4-0.5c0.4-0.3,0.5-0.7,0.5-1.3h0.7c0,0.5-0.1,0.9-0.3,1.3c-0.2,0.4-0.6,0.6-1,0.8
		C440.9,242.7,440.5,242.8,439.9,242.8z"/>
	<path d="M445.1,242.7v-0.6l4.4-5.9v0.2l-4.4,0v-0.6h5v0.6l-4.3,5.8l-0.1-0.1l4.4,0v0.6H445.1z"/>
	<path d="M453,235.8h0.8l3.7,6.1h-0.1v-6.1h0.6v6.9h-0.8l-3.8-6.2h0.1v6.2H453V235.8z"/>
	<path d="M460.5,235.8h0.8l2.2,3.6h-0.2l2.2-3.6h0.8l-2.5,4.1v2.8h-0.7v-2.8L460.5,235.8z"/>
</g>
<path d="M170.6,228c-3.6,0-7.6,1.2-11.9,3.6c-1,0-3.7,0-8.4,0.1c-4.6,0-7.8,0.1-9.7,0.2c-1.8,0.1-4.4,0.3-7.8,0.7
	c-3.4,0.3-6.4,0.9-9.2,1.7c-2.7,0.7-5.4,1.7-8.1,2.8c1.1-2,2.3-4,3.5-6c1.6-2.7,3.3-5.4,5.2-8.2c7.4-11.4,17.7-21.7,30.2-28.4
	c3.9-0.1,7-0.4,9.6-1c2.9-0.6,4.3-1.3,4.3-2.3c0-0.7-0.9-1.1-2.6-1.1c-3.6,0-7.6,1.2-11.9,3.6c-1,0-3.8,0-8.4,0.1
	c-4.6,0-7.8,0.1-9.7,0.2c-1.8,0.1-4.4,0.3-7.8,0.7c-3.4,0.3-6.5,0.9-9.3,1.7c-7.7,2.1-15.1,5.7-21.4,11c-6.3,5.1-10.4,12.4-10.4,20
	c0,3.8,1.1,6.9,3.3,9.3c2.3,2.3,5,3.6,8.4,3.7V240c-6.3-0.1-10.1-4.5-10.1-10.4c0.1-9.1,6.7-16.8,15-22c5.7-3.8,10.9-6.1,16-7.9
	c5.8-1.9,11.1-3.2,15.6-3.8c4.6-0.6,10.3-1,17-1.3c-5.7,3.3-11.5,7.7-17.4,13.2c-5.8,5.5-11.2,11.3-16.2,17.5
	c-2.4,3-4.7,5.9-6.9,8.8c-2.3,3-4.6,6-6.6,9c-1,0.7-1.9,1.4-2.8,2.2c-5.1,4.2-8.7,9.7-10,15.7c-0.3,1.4-0.4,2.8-0.4,4.3
	c0,3.2,0.8,5.9,2.4,8.2c0.2,0.4,0.6,0.8,0.9,1.1c2.3,2.3,5.1,3.6,8.5,3.7v-0.3c-4.2-0.1-7.3-2-8.8-5.1c-0.8-1.5-1.3-3.4-1.3-5.4
	c0.1-9,6.7-16.8,15-22c1.2-0.8,2.4-1.6,3.6-2.3c4.3-2.5,8.4-4.2,12.4-5.6c5.8-1.9,11.1-3.2,15.6-3.8c4.6-0.6,10.3-1.1,17-1.3
	c-5.7,3.3-11.5,7.7-17.3,13.2c-5.9,5.5-11.2,11.3-16.2,17.5c-5,6.2-9.6,12.2-13.7,17.9c-4.1,5.7-8.2,11.4-12.2,17.2
	c-4,5.7-7,9.8-9.1,12.4c-2.1,2.5-4,4.8-5.8,6.7c-1.7,1.9-3.9,4.1-6.6,6.5c-2.7,2.5-5.2,4.5-7.6,6.2c-4.8,3.2-11.1,5.8-16.7,5.8
	c-7.1,0-12.8-2.5-17.3-7.5c-3.9-4.4-5.9-9.9-5.9-16.4c0-6.1,1.5-11.9,4.5-17.4c1.2,0.8,2.5,1.5,3.8,2.1c3.4,1.5,7.2,2.2,11.6,2.2
	c17,0,32.3-9.1,43.6-22.9c-2.2-2.7-3.5-6-3.9-9.6c-0.7,1-2.1,2.8-2.8,3.6c-0.8,1-1.5,1.9-2.1,2.7c-0.2,0.3-0.4,0.5-0.7,0.8
	c-5-3.2-10.6-4.7-16.7-4.7c-7.1,0-13.6,2.1-19.6,6.4c-6,4.2-10.7,9.5-14.1,15.9c-0.3,0.5-0.5,1-0.7,1.5c-0.7-0.6-1.4-1.3-2.1-2.1
	c-0.4-0.4-0.7-0.9-1.1-1.3c-3.2-4.2-4.8-9.2-4.8-15c0-7.2,2.1-14,6.4-20.3c4.3-6.4,9.7-11.2,16.2-14.8c6.6-3.6,13.3-5.3,20.2-5.3
	c4.1,0,8.3,1,12.7,2.8c-5.3-3.7-11.3-5.6-18-5.6c-7,0-13.6,2.1-19.6,6.4c-6,4.2-10.7,9.5-14.1,15.8c-3.3,6.4-5,12.9-5,19.4
	c0,6.8,1.9,12.6,5.7,17.4c0.3,0.3,0.6,0.7,0.9,1c0.7,0.8,1.5,1.6,2.4,2.3c-2.6,5.7-3.9,11.4-3.9,17.2c0,7.3,2.2,13.4,6.5,18.4
	c4.7,5.3,11.2,8,19.7,8c18.7,0,34.4-9.9,46.2-26.3c3-4.1,6.2-9.3,9.7-15.6l9.6-17.5c3-5.4,6.3-11,10-16.6
	c7.4-11.4,17.7-21.7,30.1-28.4c3.9-0.1,7.1-0.4,9.6-1c2.9-0.6,4.3-1.3,4.3-2.3C173.2,228.4,172.3,228,170.6,228z M35.1,291.7
	c4.3-6.4,9.7-11.2,16.2-14.8c6.5-3.6,13.3-5.3,20.2-5.3c3.6,0,7.3,0.7,11.2,2.2c-1,1.3-2.1,2.5-3,3.6c-0.6,0.7-1.2,1.4-1.8,2.1
	c-1.8,1.9-3.9,4.1-6.6,6.5c-2.7,2.5-5.2,4.5-7.6,6.2c-4.8,3.2-11.1,5.8-16.7,5.8c-3.5,0-6.6-0.6-9.5-1.8c-1.3-0.6-2.6-1.3-3.8-2.1
	C34.1,293.3,34.6,292.5,35.1,291.7z"/>
<path d="M160,264.3L160,264.3l18.3-0.1c1.4,0,2.7,0.3,3.8,0.8c1.2,0.5,2.2,1.2,3.1,2.1s1.6,2,2.1,3.2c0.5,1.2,0.8,2.5,0.8,3.9
	c0,2.2-0.6,4.2-1.9,6c-1.3,1.7-2.9,2.9-4.9,3.6c2.1,0.7,3.7,1.7,5,3.1c1.2,1.4,1.9,3,1.9,4.8v4c0.1,0.8,0.4,1.5,0.9,2
	c0.5,0.5,1.1,0.8,1.8,0.8v0.1h-4.1c-0.7,0-1.2-0.2-1.4-0.7c-0.2-0.5-0.3-1.2-0.3-2.2v-4.2c0-1.1-0.2-2-0.7-2.9
	c-0.5-0.9-1.1-1.7-1.9-2.3c-0.8-0.7-1.7-1.2-2.7-1.6c-1-0.4-2.1-0.6-3.3-0.6h-11.1v10.8c0.1,1,0.4,1.8,0.9,2.5c0.5,0.7,1.1,1,1.9,1
	v0.1H160v-0.1c0.7,0,1.4-0.3,1.9-1c0.5-0.7,0.8-1.5,0.9-2.5v-27.3c0-1-0.3-1.9-0.9-2.5C161.4,264.6,160.7,264.3,160,264.3z
	 M165.5,283.2h12.8c1,0,1.9-0.2,2.7-0.7c0.8-0.5,1.6-1.1,2.2-1.9c0.6-0.8,1.1-1.8,1.5-2.8c0.4-1.1,0.5-2.2,0.5-3.5s-0.2-2.4-0.5-3.5
	c-0.4-1.1-0.9-2-1.5-2.8c-0.6-0.8-1.4-1.4-2.2-1.9c-0.8-0.5-1.8-0.7-2.7-0.7h-12.8V283.2z"/>
<path d="M205.7,264.3L205.7,264.3c-0.7,0.1-1.4,0.4-1.9,1.1c-0.5,0.7-0.8,1.5-0.8,2.5v22.2c0,1,0.3,2,0.8,2.8
	c0.5,0.9,1.2,1.7,2.1,2.3c0.9,0.7,1.9,1.2,3.1,1.6c1.2,0.4,2.5,0.6,3.8,0.6c1.4,0,2.7-0.2,4-0.6c1.3-0.4,2.4-0.9,3.4-1.6
	c1-0.7,1.8-1.4,2.4-2.3c0.6-0.9,0.9-1.8,0.9-2.8l0.3-23c-0.2-0.8-0.5-1.5-1-2c-0.5-0.5-1.1-0.8-1.7-0.8v-0.1h7.1v0.1
	c-0.7,0-1.4,0.3-1.9,1c-0.5,0.7-0.8,1.5-0.8,2.5v22.2c0,1.2-0.3,2.3-1,3.4c-0.7,1.1-1.6,2-2.7,2.7c-1.1,0.8-2.5,1.4-4,1.9
	c-1.5,0.5-3.2,0.7-4.9,0.7c-1.7,0-3.4-0.2-4.9-0.7c-1.5-0.5-2.9-1.1-4-1.9c-1.1-0.8-2-1.7-2.7-2.7c-0.7-1.1-1-2.2-1-3.4v-22.2
	c0-1-0.3-1.9-0.9-2.5c-0.5-0.7-1.2-1-1.9-1v-0.1H205.7z"/>
<path d="M235.6,297.4v-7.9h0.1c0,1.1,0.4,2.2,1.1,3.2c0.7,1.1,1.6,2,2.8,2.8c1.1,0.8,2.4,1.4,3.8,1.9c1.4,0.5,2.8,0.7,4.3,0.7
	c1.4,0,2.8-0.2,4-0.6c1.2-0.4,2.3-1,3.3-1.7c0.9-0.7,1.7-1.6,2.2-2.5c0.5-1,0.8-2,0.8-3.1c0-1.1-0.3-2.1-0.8-2.9
	c-0.5-0.9-1.2-1.6-2.2-2.3c-0.9-0.7-2-1.2-3.3-1.7c-1.2-0.5-2.6-0.8-4.1-1.1c-1.6-0.3-3.2-0.7-4.6-1.3c-1.5-0.5-2.7-1.2-3.8-2
	c-1.1-0.8-2-1.7-2.6-2.7c-0.6-1-1-2.2-1-3.4c0-1.3,0.3-2.5,0.9-3.6c0.6-1.1,1.5-2.1,2.6-2.9c1.1-0.8,2.4-1.5,3.8-2
	c1.5-0.5,3-0.7,4.7-0.7c1.4,0,2.9,0.3,4.4,0.8c1.5,0.5,2.9,1.2,4.1,2.1c1.2,0.2,1.9-0.2,1.9-1.3h0.1v8.3h-0.3c0-1.2-0.3-2.3-0.9-3.4
	c-0.6-1.1-1.3-2-2.3-2.8c-0.9-0.8-2-1.5-3.3-2s-2.5-0.7-3.7-0.7c-1.2,0-2.4,0.2-3.5,0.7c-1.1,0.4-2.1,1-2.9,1.8
	c-0.8,0.7-1.5,1.6-1.9,2.6c-0.5,1-0.7,2-0.7,3.1c0,1.1,0.2,2.1,0.7,3c0.5,0.9,1.1,1.7,1.9,2.4c0.8,0.7,1.8,1.3,2.9,1.7
	c1.1,0.5,2.3,0.8,3.6,1c1.9,0.4,3.7,0.9,5.3,1.4c1.6,0.5,3,1.2,4.2,1.9c1.2,0.8,2.1,1.6,2.7,2.6c0.6,1,1,2.1,1,3.4
	c0,1.2-0.3,2.4-1,3.5c-0.7,1.1-1.6,2.1-2.8,2.9c-1.2,0.8-2.6,1.5-4.2,2c-1.6,0.5-3.3,0.7-5.1,0.7c-1.8,0-3.6-0.3-5.4-0.9
	c-1.8-0.6-3.5-1.4-4.8-2.2C236.2,295.7,235.6,296.1,235.6,297.4L235.6,297.4z"/>
<path d="M268,298.8v-1.1l21.6-32.2h-17.3c-0.4,0-0.9,0.2-1.3,0.3c-0.5,0.2-0.8,0.4-1.2,0.6c-0.3,0.2-0.6,0.5-0.9,0.9
	c-0.2,0.3-0.4,0.7-0.4,1h-0.1l0.6-4h24v1.1l-21.7,32.2h18.8c0.9-0.1,1.7-0.5,2.5-1c0.8-0.5,1.2-1.1,1.2-1.8h0.1l-0.6,3.9H268z"/>
<path d="M301,298.8L301,298.8c0.7-0.1,1.4-0.4,1.9-1.1c0.5-0.7,0.8-1.5,0.9-2.4v-27.5c-0.1-1-0.4-1.8-0.9-2.4c-0.5-0.7-1.1-1-1.9-1
	v-0.1h25v4h-0.1c0-0.7-0.3-1.4-1-2c-0.7-0.6-1.5-0.8-2.5-0.9h-15.9v15.5h10.7c0.9-0.1,1.6-0.4,2.2-0.9c0.6-0.5,0.9-1.2,0.9-1.9h0.1
	v6.8h-0.1c0-0.7-0.3-1.4-0.9-1.9c-0.6-0.5-1.3-0.8-2.2-1h-10.7v15.6h16.1c0.9-0.1,1.7-0.4,2.3-0.9c0.6-0.5,0.9-1.1,0.9-1.9h0.1v4
	H301z"/>
<path d="M330.6,264.3h9v0.1c-0.6,0-1.1,0.2-1.5,0.6c-0.5,0.4-0.8,0.9-1,1.6l8.8,26.2l8.6-28.5l9.5,28.5l7.6-25.3
	c-0.1-0.9-0.4-1.6-0.9-2.2c-0.5-0.6-1.1-0.9-1.8-0.9v-0.1h7.7v0.1c-0.7,0-1.5,0.3-2.2,0.9s-1.3,1.4-1.7,2.4l-9.5,31.6l-9.7-28.8
	l-8.4,28.8l-10.7-31.9c-0.4-0.8-1-1.5-1.7-2.1C331.9,264.7,331.2,264.4,330.6,264.3L330.6,264.3z"/>
<path d="M381.2,297.4v-7.9h0.1c0,1.1,0.4,2.2,1.1,3.2c0.7,1.1,1.6,2,2.8,2.8c1.1,0.8,2.4,1.4,3.8,1.9c1.4,0.5,2.8,0.7,4.3,0.7
	c1.4,0,2.8-0.2,4-0.6c1.2-0.4,2.3-1,3.3-1.7c0.9-0.7,1.7-1.6,2.2-2.5c0.5-1,0.8-2,0.8-3.1c0-1.1-0.3-2.1-0.8-2.9
	c-0.5-0.9-1.2-1.6-2.2-2.3c-0.9-0.7-2-1.2-3.3-1.7c-1.2-0.5-2.6-0.8-4.1-1.1c-1.6-0.3-3.2-0.7-4.6-1.3c-1.5-0.5-2.7-1.2-3.8-2
	c-1.1-0.8-2-1.7-2.6-2.7c-0.6-1-1-2.2-1-3.4c0-1.3,0.3-2.5,0.9-3.6c0.6-1.1,1.5-2.1,2.6-2.9c1.1-0.8,2.4-1.5,3.8-2
	c1.5-0.5,3-0.7,4.7-0.7c1.4,0,2.9,0.3,4.4,0.8c1.5,0.5,2.9,1.2,4.1,2.1c1.2,0.2,1.9-0.2,1.9-1.3h0.1v8.3h-0.3c0-1.2-0.3-2.3-0.9-3.4
	c-0.6-1.1-1.3-2-2.3-2.8c-0.9-0.8-2-1.5-3.3-2s-2.5-0.7-3.7-0.7c-1.2,0-2.4,0.2-3.5,0.7c-1.1,0.4-2.1,1-2.9,1.8
	c-0.8,0.7-1.5,1.6-1.9,2.6c-0.5,1-0.7,2-0.7,3.1c0,1.1,0.2,2.1,0.7,3c0.5,0.9,1.1,1.7,1.9,2.4c0.8,0.7,1.8,1.3,2.9,1.7
	c1.1,0.5,2.3,0.8,3.6,1c1.9,0.4,3.7,0.9,5.3,1.4c1.6,0.5,3,1.2,4.2,1.9c1.2,0.8,2.1,1.6,2.7,2.6c0.6,1,1,2.1,1,3.4
	c0,1.2-0.3,2.4-1,3.5c-0.7,1.1-1.6,2.1-2.8,2.9c-1.2,0.8-2.6,1.5-4.2,2c-1.6,0.5-3.3,0.7-5.1,0.7c-1.8,0-3.6-0.3-5.4-0.9
	c-1.8-0.6-3.5-1.4-4.8-2.2C381.9,295.7,381.3,296.1,381.2,297.4L381.2,297.4z"/>
<path d="M413.6,264.2h8.3v0.1c-0.7,0-1.4,0.4-1.9,1.1c-0.5,0.7-0.8,1.6-0.9,2.6v12.8l18.1-15.5c-0.5-0.6-1.1-0.9-1.8-0.9v-0.1h7.5
	v0.1c-0.8,0-1.7,0.2-2.8,0.7c-1.1,0.5-2.1,1.1-3.1,1.9L425.3,277l13.6,18.1c0.4,0.4,0.8,0.9,1.3,1.3c0.5,0.4,1,0.8,1.5,1.2
	c0.5,0.3,1,0.6,1.5,0.8c0.5,0.2,0.9,0.3,1.3,0.3v0.1h-10v-0.1c0.5,0,0.9-0.2,1.3-0.5c0.4-0.3,0.7-0.7,1-1.2l-13.6-18.1l-4.1,3.4
	v12.8c0,1,0.3,1.9,0.9,2.6c0.5,0.7,1.2,1.1,1.9,1.1v0.1h-8.3v-0.1c0.7,0,1.4-0.3,1.9-1c0.5-0.7,0.8-1.5,0.9-2.4v-27.5
	c-0.1-1-0.4-1.8-0.9-2.4C414.9,264.6,414.3,264.3,413.6,264.2L413.6,264.2z"/>
<path d="M155.9,224.4c0-2.5,0.4-4.8,1.3-6.9c0.8-2.1,2-4,3.4-5.6c1.4-1.6,3.1-2.9,5-3.8c1.9-0.9,4-1.4,6.2-1.4
	c2.2,0,4.3,0.5,6.2,1.4c1.9,0.9,3.6,2.2,5,3.8c1.4,1.6,2.5,3.5,3.4,5.6c0.8,2.1,1.3,4.4,1.3,6.9c0,2.5-0.4,4.8-1.3,6.9
	c-0.8,2.2-2,4-3.4,5.7s-3.1,2.9-5,3.8c-1.9,0.9-4,1.4-6.2,1.4c-2.2,0-4.3-0.5-6.2-1.4c-1.9-0.9-3.6-2.2-5-3.8s-2.5-3.5-3.4-5.7
	C156.4,229.2,155.9,226.9,155.9,224.4z M171.8,241.1c1.8,0,3.5-0.4,5.1-1.3c1.6-0.9,2.9-2.1,4.1-3.6c1.2-1.5,2.1-3.3,2.8-5.3
	c0.7-2,1-4.2,1-6.5c0-2.3-0.3-4.4-1-6.4c-0.7-2-1.6-3.8-2.8-5.3c-1.2-1.5-2.5-2.7-4.1-3.6c-1.6-0.9-3.3-1.3-5.1-1.3
	c-1.8,0-3.5,0.4-5.1,1.3c-1.6,0.9-2.9,2.1-4.1,3.6c-1.2,1.5-2.1,3.3-2.8,5.3c-0.7,2-1,4.2-1,6.4c0,2.3,0.3,4.5,1,6.5
	c0.7,2,1.6,3.8,2.8,5.3c1.2,1.5,2.5,2.7,4.1,3.6C168.3,240.7,170,241.1,171.8,241.1z"/>
<path d="M225.1,207h3.9l23.1,29.8v-26.3c-0.1-1-0.4-1.8-0.9-2.4c-0.5-0.7-1.1-1-1.9-1V207h6.6v0.1c-0.8,0-1.4,0.4-2,1.1
	c-0.5,0.7-0.8,1.6-0.8,2.6v30.8H252l-23.1-29.8v26.1c0,1,0.3,1.9,0.9,2.6c0.5,0.7,1.2,1.1,1.9,1.1v0.1h-6.6v-0.1
	c0.7,0,1.4-0.4,1.9-1c0.5-0.6,0.8-1.4,0.9-2.4v-27.5c0-1-0.3-1.8-0.9-2.4C226.4,207.4,225.8,207.1,225.1,207L225.1,207z"/>
<path d="M263,207h3.9l23.1,29.8v-26.3c-0.1-1-0.4-1.8-0.9-2.4c-0.5-0.7-1.1-1-1.9-1V207h6.6v0.1c-0.8,0-1.4,0.4-2,1.1
	c-0.5,0.7-0.8,1.6-0.8,2.6v30.8H290l-23.1-29.8v26.1c0,1,0.3,1.9,0.9,2.6c0.5,0.7,1.2,1.1,1.9,1.1v0.1H263v-0.1c0.7,0,1.4-0.4,1.9-1
	c0.5-0.6,0.8-1.4,0.9-2.4v-27.5c0-1-0.3-1.8-0.9-2.4C264.4,207.4,263.7,207.1,263,207L263,207z"/>
<g>
	<path d="M200.4,220.7c-0.4,1-0.7,1.9-0.9,2.8l2.6-7.3L200.4,220.7z"/>
	<path d="M196,240.5c0,0,1.1,1,1.7,1h-6.9c0.1,0,0.9,0,1.9-1.9c0.2-0.4,1.8-4.3,1.8-4.3c1.1-2.5,2.3-5.5,3.4-8.5h0.1
		c-0.7,1.8-1.2,3.6-1.7,5.2c-0.7,2.6-1.2,4.8-1.2,6.5c0,0,0,0,0,0v0.1C195.3,239.4,195.5,240,196,240.5z"/>
	<path d="M212.8,240.6c-0.5,0.6-1.1,0.9-1.8,0.9h8.7c-0.7-0.1-1.4-0.5-1.9-1.3c-0.6-0.7-1-1.6-1.3-2.4l-10.1-28.1l-1-2.7l-1,2.7
		l-0.2,0.6l-0.3,0.9l-1.3,3.7l0,0l-0.4,1.2l-2.6,7.3c-0.6,2.1-0.8,3.9-0.7,5.3c0.1,1.3,0.4,2.3,0.8,3.1c0.2,0.4,0.5,0.8,0.8,1.1
		c1.2,1.3,2.8,1.7,4,1.7c1.9,0,3.5-0.8,4.7-1.7c0.5-0.4,0.9-0.8,1.3-1.1c0.2-0.2,0.4-0.4,0.6-0.6l0.1,0.3l0.1,0.3l0.7,1.9l0,0
		l1.3,3.5C213.6,238.6,213.5,239.7,212.8,240.6C212.8,240.6,212.8,240.6,212.8,240.6z M210.4,231.9c-0.4,0.4-0.8,0.8-1.4,1.1
		c-1.1,0.8-2.6,1.4-4.5,1.4c-1.2,0-2.6-0.4-3.6-1.4c-0.3-0.3-0.6-0.7-0.9-1.1c-0.6-1-0.9-2.2-0.9-3.9c0-1.8,0.4-4.1,1.5-6.9l2.1-5.9
		l1.2-3.4l0.4,1.1l0.6,1.5v0l6.1,16.8C210.9,231.4,210.6,231.6,210.4,231.9z"/>
</g>
<g>
	<path d="M134.1,277.5c-0.4,1-0.7,1.9-0.9,2.8l2.7-7.5L134.1,277.5z"/>
	<path d="M129.6,297.8c0,0,1.1,1,1.8,1.1h-7c0.1,0,0.9,0,2-1.9c0.2-0.4,1.9-4.4,1.9-4.4c1.1-2.6,2.3-5.7,3.5-8.7h0.1
		c-0.7,1.8-1.3,3.6-1.7,5.3c-0.7,2.6-1.2,5-1.2,6.7c0,0,0,0,0,0v0.1C128.8,296.6,129.1,297.3,129.6,297.8z"/>
	<path d="M146.7,297.9c-0.5,0.6-1.1,0.9-1.8,0.9h8.9c-0.7-0.1-1.4-0.5-2-1.3c-0.6-0.8-1-1.6-1.4-2.5l-10.4-28.8l-1-2.8l-1,2.8
		l-0.2,0.6l-0.3,0.9l-1.3,3.8l0,0l-0.4,1.2l-2.7,7.5c-0.6,2.2-0.8,4-0.7,5.4c0.1,1.3,0.4,2.4,0.8,3.2c0.2,0.4,0.5,0.8,0.8,1.1
		c1.2,1.3,2.8,1.7,4.1,1.7c2,0,3.6-0.8,4.8-1.7c0.5-0.4,0.9-0.8,1.3-1.1c0.2-0.2,0.4-0.4,0.6-0.6l0.1,0.3l0.1,0.3l0.7,2l0,0l1.3,3.5
		C147.6,295.8,147.5,296.9,146.7,297.9C146.7,297.9,146.7,297.9,146.7,297.9z M144.3,288.9c-0.4,0.4-0.9,0.8-1.4,1.1
		c-1.2,0.8-2.7,1.4-4.6,1.4c-1.2,0-2.6-0.4-3.7-1.4c-0.3-0.3-0.6-0.7-0.9-1.1c-0.6-1-0.9-2.3-0.9-4c0-1.9,0.5-4.2,1.5-7.1l2.2-6
		l1.3-3.5l0.4,1.2l0.6,1.5v0l6.2,17.2C144.7,288.4,144.5,288.7,144.3,288.9z"/>
</g>
<g>
	<path d="M457.9,277.4c-0.4,1-0.7,1.9-0.9,2.8l2.7-7.5L457.9,277.4z"/>
	<path d="M453.5,297.7c0,0,1.1,1,1.8,1.1h-7c0.1,0,0.9,0,2-1.9c0.2-0.4,1.9-4.4,1.9-4.4c1.1-2.6,2.3-5.7,3.5-8.7h0.1
		c-0.7,1.8-1.3,3.6-1.7,5.3c-0.7,2.6-1.2,5-1.2,6.7c0,0,0,0,0,0v0.1C452.7,296.5,453,297.2,453.5,297.7z"/>
	<path d="M470.6,297.8c-0.5,0.6-1.1,0.9-1.8,0.9h8.9c-0.7-0.1-1.4-0.5-2-1.3c-0.6-0.8-1-1.6-1.4-2.5L464,266.2l-1-2.8l-1,2.8
		l-0.2,0.6l-0.3,0.9l-1.3,3.8l0,0l-0.4,1.2l-2.7,7.5c-0.6,2.2-0.8,4-0.7,5.4c0.1,1.3,0.4,2.4,0.8,3.2c0.2,0.4,0.5,0.8,0.8,1.1
		c1.2,1.3,2.8,1.7,4.1,1.7c2,0,3.6-0.8,4.8-1.7c0.5-0.4,0.9-0.8,1.3-1.1c0.2-0.2,0.4-0.4,0.6-0.6l0.1,0.3l0.1,0.3l0.7,2l0,0l1.3,3.5
		C471.5,295.7,471.4,296.9,470.6,297.8C470.6,297.8,470.6,297.8,470.6,297.8z M468.1,288.9c-0.4,0.4-0.9,0.8-1.4,1.1
		c-1.2,0.8-2.7,1.4-4.6,1.4c-1.2,0-2.6-0.4-3.7-1.4c-0.3-0.3-0.6-0.7-0.9-1.1c-0.6-1-0.9-2.3-0.9-4c0-1.9,0.5-4.2,1.5-7.1l2.2-6
		l1.3-3.5l0.4,1.2l0.6,1.5v0l6.2,17.2C468.6,288.4,468.4,288.6,468.1,288.9z"/>
</g>
<g>
	<path d="M306.6,220.7c-0.4,1-0.7,1.9-0.9,2.8l2.6-7.3L306.6,220.7z"/>
	<path d="M302.2,240.5c0,0,1.1,1,1.7,1h-6.9c0.1,0,0.9,0,1.9-1.9c0.2-0.4,1.8-4.3,1.8-4.3c1.1-2.5,2.3-5.5,3.4-8.5h0.1
		c-0.7,1.8-1.2,3.6-1.7,5.2c-0.7,2.6-1.2,4.8-1.2,6.5c0,0,0,0,0,0v0.1C301.5,239.4,301.8,240,302.2,240.5z"/>
	<path d="M319,240.6c-0.5,0.6-1.1,0.9-1.8,0.9h8.7c-0.7-0.1-1.4-0.5-1.9-1.3c-0.6-0.7-1-1.6-1.3-2.4l-10.1-28.1l-1-2.7l-1,2.7
		l-0.2,0.6l-0.3,0.9l-1.3,3.7l0,0l-0.4,1.2l-2.6,7.3c-0.6,2.1-0.8,3.9-0.7,5.3c0.1,1.3,0.4,2.3,0.8,3.1c0.2,0.4,0.5,0.8,0.8,1.1
		c1.2,1.3,2.8,1.7,4,1.7c1.9,0,3.5-0.8,4.7-1.7c0.5-0.4,0.9-0.8,1.3-1.1c0.2-0.2,0.4-0.4,0.6-0.6l0.1,0.3l0.1,0.3l0.7,1.9l0,0
		l1.3,3.5C319.8,238.6,319.8,239.7,319,240.6C319,240.6,319,240.6,319,240.6z M316.6,231.9c-0.4,0.4-0.8,0.8-1.4,1.1
		c-1.1,0.8-2.6,1.4-4.5,1.4c-1.2,0-2.6-0.4-3.6-1.4c-0.3-0.3-0.6-0.7-0.9-1.1c-0.6-1-0.9-2.2-0.9-3.9c0-1.8,0.4-4.1,1.5-6.9l2.1-5.9
		l1.2-3.4l0.4,1.1l0.6,1.5v0l6.1,16.8C317.1,231.4,316.9,231.6,316.6,231.9z"/>
</g>
</svg>
