<?xml version="1.0" encoding="utf-8"?>
<!-- Generator: Adobe Illustrator 25.4.8, SVG Export Plug-In . SVG Version: 6.00 Build 0)  -->
<svg version="1.1" id="Warstwa_1" xmlns="http://www.w3.org/2000/svg" xmlns:xlink="http://www.w3.org/1999/xlink" x="0px" y="0px"
	 viewBox="0 0 500 500" style="enable-background:new 0 0 500 500;" xml:space="preserve">
<g>
	<path d="M179.7,309.9c-0.5,0-1-0.1-1.4-0.3c-0.4-0.2-0.8-0.5-1-0.8s-0.4-0.8-0.4-1.3h0.7c0,0.4,0.1,0.7,0.3,1
		c0.2,0.3,0.4,0.4,0.8,0.6c0.3,0.1,0.7,0.2,1,0.2c0.4,0,0.8-0.1,1.1-0.2c0.3-0.1,0.5-0.3,0.7-0.5c0.2-0.2,0.2-0.5,0.2-0.7
		c0-0.4-0.1-0.7-0.3-0.9c-0.2-0.2-0.5-0.4-1-0.5l-1.3-0.4c-0.7-0.2-1.2-0.5-1.5-0.8c-0.3-0.3-0.5-0.7-0.5-1.2c0-0.6,0.2-1.1,0.7-1.4
		c0.4-0.4,1.1-0.6,1.9-0.6c0.7,0,1.3,0.2,1.8,0.5c0.4,0.3,0.7,0.8,0.7,1.3h-0.7c-0.1-0.4-0.2-0.7-0.5-0.9c-0.3-0.2-0.7-0.3-1.2-0.3
		c-0.6,0-1,0.1-1.3,0.4c-0.3,0.3-0.5,0.6-0.5,1c0,0.3,0.1,0.6,0.3,0.8c0.2,0.2,0.5,0.3,0.9,0.5l1.5,0.5c0.5,0.2,1,0.4,1.3,0.7
		c0.3,0.3,0.5,0.8,0.5,1.3c0,0.4-0.1,0.7-0.3,1.1c-0.2,0.3-0.5,0.6-0.9,0.8C180.8,309.8,180.3,309.9,179.7,309.9z"/>
	<path d="M185,309.7l2.7-7.7h0.9l2.6,7.7h-0.8l-0.7-2.1h-3.2l-0.7,2.1H185z M186.7,307h2.8l-1.4-4.1L186.7,307z"/>
	<path d="M194.8,302v7.1h3.6v0.6H194V302H194.8z"/>
	<path d="M203.6,309.9c-0.6,0-1.2-0.1-1.7-0.4c-0.5-0.3-0.9-0.7-1.2-1.3c-0.3-0.6-0.4-1.3-0.4-2.2c0-0.9,0.1-1.6,0.4-2.2
		c0.3-0.6,0.7-1,1.2-1.3c0.5-0.3,1-0.4,1.7-0.4c0.6,0,1.2,0.1,1.7,0.4c0.5,0.3,0.9,0.7,1.2,1.3c0.3,0.6,0.4,1.3,0.4,2.2
		s-0.1,1.6-0.4,2.2c-0.3,0.6-0.7,1-1.2,1.3C204.7,309.7,204.2,309.9,203.6,309.9z M203.6,309.2c0.8,0,1.4-0.3,1.8-0.8
		c0.4-0.6,0.7-1.4,0.7-2.5c0-1.1-0.2-1.9-0.7-2.5c-0.4-0.6-1.1-0.9-1.8-0.9c-0.8,0-1.4,0.3-1.8,0.9c-0.4,0.6-0.7,1.4-0.7,2.5
		c0,1.1,0.2,1.9,0.7,2.5C202.2,308.9,202.8,309.2,203.6,309.2z"/>
	<path d="M210,302h0.9l4.1,6.8H215V302h0.7v7.7h-0.9l-4.2-6.9h0.1v6.9H210V302z"/>
	<path d="M223.7,302h0.7v7.7h-0.7V302z M228.1,302h1l-4.8,5V306L228.1,302z M225.7,305.3l3.7,4.4h-1l-3.3-3.9L225.7,305.3z"/>
	<path d="M234.9,309.9c-0.6,0-1.2-0.1-1.7-0.4c-0.5-0.3-0.9-0.7-1.2-1.3c-0.3-0.6-0.4-1.3-0.4-2.2c0-0.9,0.1-1.6,0.4-2.2
		c0.3-0.6,0.7-1,1.2-1.3c0.5-0.3,1-0.4,1.7-0.4c0.6,0,1.2,0.1,1.7,0.4c0.5,0.3,0.9,0.7,1.2,1.3c0.3,0.6,0.4,1.3,0.4,2.2
		s-0.1,1.6-0.4,2.2s-0.7,1-1.2,1.3C236,309.7,235.5,309.9,234.9,309.9z M234.9,309.2c0.8,0,1.4-0.3,1.8-0.8c0.4-0.6,0.7-1.4,0.7-2.5
		c0-1.1-0.2-1.9-0.7-2.5c-0.4-0.6-1.1-0.9-1.8-0.9c-0.8,0-1.4,0.3-1.8,0.9c-0.4,0.6-0.7,1.4-0.7,2.5c0,1.1,0.2,1.9,0.7,2.5
		C233.5,308.9,234.1,309.2,234.9,309.2z"/>
	<path d="M243.7,309.9c-0.5,0-1-0.1-1.4-0.3c-0.4-0.2-0.8-0.5-1-0.8s-0.4-0.8-0.4-1.3h0.7c0,0.4,0.1,0.7,0.3,1
		c0.2,0.3,0.4,0.4,0.8,0.6c0.3,0.1,0.7,0.2,1,0.2c0.4,0,0.8-0.1,1.1-0.2c0.3-0.1,0.5-0.3,0.7-0.5c0.2-0.2,0.2-0.5,0.2-0.7
		c0-0.4-0.1-0.7-0.3-0.9c-0.2-0.2-0.5-0.4-1-0.5l-1.3-0.4c-0.7-0.2-1.2-0.5-1.5-0.8c-0.3-0.3-0.5-0.7-0.5-1.2c0-0.6,0.2-1.1,0.7-1.4
		c0.4-0.4,1.1-0.6,1.9-0.6c0.7,0,1.3,0.2,1.8,0.5c0.4,0.3,0.7,0.8,0.7,1.3h-0.7c-0.1-0.4-0.2-0.7-0.5-0.9c-0.3-0.2-0.7-0.3-1.2-0.3
		c-0.6,0-1,0.1-1.3,0.4c-0.3,0.3-0.5,0.6-0.5,1c0,0.3,0.1,0.6,0.3,0.8c0.2,0.2,0.5,0.3,0.9,0.5l1.5,0.5c0.5,0.2,1,0.4,1.3,0.7
		s0.5,0.8,0.5,1.3c0,0.4-0.1,0.7-0.3,1.1c-0.2,0.3-0.5,0.6-0.9,0.8C244.8,309.8,244.3,309.9,243.7,309.9z"/>
	<path d="M249.9,302h1l2.9,5.6h-0.1l2.9-5.6h1v7.7h-0.7v-7h0.2l-3,6h-0.5l-3-6h0.1v7h-0.7V302z"/>
	<path d="M261.5,309.7V302h4.6v0.6h-3.9v2.9h3.7v0.6h-3.7v3h3.9v0.6H261.5z"/>
	<path d="M268.4,302.7V302h5.9v0.6h-2.8l0.2-0.2v7.3H271v-7.3l0.2,0.2H268.4z"/>
	<path d="M275.8,302h0.9l2.4,4h-0.2l2.4-4h0.9l-2.8,4.5v3.2h-0.7v-3.2L275.8,302z"/>
	<path d="M287.3,309.9c-0.7,0-1.3-0.2-1.7-0.5c-0.5-0.4-0.9-0.8-1.1-1.4c-0.3-0.6-0.4-1.3-0.4-2.1c0-0.8,0.1-1.6,0.4-2.1
		c0.3-0.6,0.7-1,1.2-1.3c0.5-0.3,1-0.4,1.6-0.4c0.8,0,1.4,0.2,1.9,0.6c0.5,0.4,0.9,0.9,1.1,1.6l-0.8,0.2c-0.2-0.5-0.5-0.9-0.9-1.2
		c-0.4-0.3-0.8-0.5-1.4-0.5c-0.4,0-0.8,0.1-1.2,0.4c-0.4,0.2-0.7,0.6-0.9,1.1s-0.3,1.1-0.3,1.8c0,0.6,0.1,1.2,0.3,1.7
		c0.2,0.5,0.4,0.9,0.8,1.2c0.4,0.3,0.8,0.5,1.4,0.5c0.7,0,1.2-0.2,1.6-0.5c0.4-0.4,0.6-0.8,0.6-1.4h0.8c0,0.5-0.1,1-0.4,1.4
		c-0.3,0.4-0.6,0.7-1.1,0.9C288.4,309.8,287.9,309.9,287.3,309.9z"/>
	<path d="M293.1,309.7v-0.7l4.9-6.6v0.3l-4.9-0.1V302h5.6v0.7l-4.8,6.5l-0.1-0.1l4.9,0v0.7H293.1z"/>
	<path d="M301.9,302h0.9l4.1,6.8h-0.1V302h0.7v7.7h-0.9l-4.2-6.9h0.1v6.9h-0.7V302z"/>
	<path d="M310.3,302h0.9l2.4,4h-0.2l2.4-4h0.9l-2.8,4.5v3.2h-0.7v-3.2L310.3,302z"/>
</g>
<path d="M302.1,146.4c-2.4,0-5.1,0.8-8,2.4c-0.6,0-2.5,0-5.6,0.1c-3.1,0-5.3,0.1-6.5,0.1c-1.2,0.1-3,0.2-5.3,0.5
	c-2.3,0.2-4.3,0.6-6.2,1.1c-1.8,0.5-3.7,1.1-5.4,1.9c0.7-1.3,1.5-2.7,2.3-4c1.1-1.8,2.3-3.7,3.5-5.5c5-7.7,11.9-14.6,20.3-19.1
	c2.6-0.1,4.7-0.3,6.4-0.7c1.9-0.4,2.9-0.9,2.9-1.5c0-0.5-0.6-0.7-1.8-0.7c-2.4,0-5.1,0.8-8,2.4c-0.6,0-2.5,0-5.6,0.1
	c-3.1,0-5.3,0.1-6.5,0.1c-1.2,0.1-3,0.2-5.3,0.5c-2.3,0.2-4.3,0.6-6.2,1.1c-5.2,1.4-10.1,3.9-14.4,7.4c-4.2,3.5-7,8.3-7,13.5
	c0,2.5,0.8,4.6,2.2,6.3c1.5,1.6,3.4,2.4,5.7,2.5v-0.2c-4.2-0.1-6.8-3-6.8-7c0.1-6.1,4.5-11.3,10.1-14.8c3.8-2.6,7.3-4.1,10.8-5.3
	c3.9-1.3,7.4-2.2,10.5-2.6c3.1-0.4,6.9-0.7,11.4-0.9c-3.8,2.2-7.7,5.1-11.7,8.9c-3.9,3.7-7.6,7.6-10.9,11.8c-1.6,2-3.2,4-4.6,5.9
	c-1.6,2-3.1,4.1-4.5,6c-0.6,0.5-1.3,0.9-1.9,1.5c-3.4,2.8-5.9,6.5-6.7,10.6c-0.2,0.9-0.3,1.9-0.3,2.9c0,2.1,0.6,4,1.6,5.5
	c0.2,0.3,0.4,0.5,0.6,0.8c1.5,1.6,3.4,2.4,5.7,2.5v-0.2c-2.8,0-4.9-1.4-5.9-3.4c-0.6-1-0.8-2.3-0.8-3.6c0.1-6.1,4.5-11.3,10.1-14.8
	c0.8-0.6,1.6-1.1,2.4-1.5c2.9-1.7,5.6-2.8,8.4-3.7c3.9-1.3,7.4-2.2,10.5-2.6c3.1-0.4,6.9-0.7,11.4-0.9c-3.8,2.2-7.7,5.2-11.7,8.9
	c-3.9,3.7-7.6,7.6-10.9,11.8c-3.3,4.2-6.4,8.2-9.2,12.1c-2.7,3.8-5.5,7.7-8.2,11.6c-2.7,3.8-4.7,6.6-6.1,8.3
	c-1.4,1.7-2.7,3.2-3.9,4.5c-1.2,1.3-2.6,2.8-4.5,4.4c-1.8,1.7-3.5,3-5.1,4.2c-3.2,2.2-7.5,3.9-11.2,3.9c-4.8,0-8.6-1.7-11.6-5
	c-2.6-3-4-6.7-4-11c0-4.1,1-8,3-11.7c0.8,0.6,1.7,1,2.6,1.4c2.3,1,4.9,1.5,7.8,1.5c11.5,0,21.7-6.1,29.3-15.4
	c-1.5-1.8-2.4-4-2.6-6.5c-0.5,0.7-1.4,1.9-1.9,2.4c-0.5,0.7-1,1.3-1.4,1.8c-0.1,0.2-0.3,0.4-0.4,0.5c-3.3-2.1-7.1-3.2-11.2-3.2
	c-4.7,0-9.1,1.4-13.2,4.3c-4,2.8-7.2,6.4-9.5,10.7c-0.2,0.3-0.4,0.7-0.5,1c-0.5-0.4-1-0.9-1.4-1.4c-0.2-0.3-0.5-0.6-0.7-0.9
	c-2.2-2.8-3.3-6.2-3.3-10.1c0-4.9,1.4-9.4,4.3-13.6c2.9-4.3,6.5-7.6,10.9-10c4.4-2.4,9-3.6,13.6-3.6c2.7,0,5.6,0.6,8.5,1.9
	c-3.6-2.5-7.6-3.7-12.1-3.7c-4.7,0-9.1,1.4-13.2,4.3c-4.1,2.8-7.2,6.4-9.5,10.7c-2.2,4.3-3.3,8.7-3.3,13.1c0,4.6,1.3,8.5,3.8,11.7
	c0.2,0.2,0.4,0.5,0.6,0.7c0.5,0.6,1,1.1,1.6,1.5c-1.8,3.8-2.6,7.7-2.6,11.6c0,4.9,1.5,9,4.4,12.4c3.2,3.6,7.6,5.4,13.3,5.4
	c12.6,0,23.2-6.7,31.1-17.7c2-2.8,4.2-6.3,6.5-10.5l6.4-11.8c2-3.6,4.2-7.4,6.7-11.2c5-7.7,11.9-14.6,20.3-19.1
	c2.7-0.1,4.8-0.3,6.5-0.7c1.9-0.4,2.9-0.9,2.9-1.5C303.9,146.6,303.3,146.4,302.1,146.4z M211,189.2c2.9-4.3,6.5-7.6,10.9-10
	c4.4-2.4,9-3.6,13.6-3.6c2.4,0,4.9,0.5,7.5,1.5c-0.7,0.8-1.4,1.7-2,2.4c-0.4,0.5-0.8,1-1.2,1.4c-1.2,1.3-2.7,2.8-4.5,4.4
	c-1.8,1.7-3.5,3-5.1,4.2c-3.2,2.2-7.5,3.9-11.2,3.9c-2.3,0-4.5-0.4-6.4-1.2c-0.9-0.4-1.8-0.9-2.6-1.4
	C210.3,190.3,210.7,189.8,211,189.2z"/>
<g>
	<path d="M72.1,251.4c0,0.3-0.5,0.6-1.5,0.8c-0.9,0.2-2,0.3-3.4,0.4c-4.5,2.4-8.2,6.1-10.8,10.2c-1.3,2-2.5,4-3.6,6l-3.4,6.3
		c-1.3,2.3-2.4,4.1-3.5,5.6c-4.2,5.9-9.9,9.5-16.6,9.5c-3,0-5.4-1-7.1-2.9c-1.6-1.8-2.4-4-2.4-6.6c0-2.4,0.6-4.7,1.8-7
		c1.2-2.3,2.9-4.2,5.1-5.7c2.2-1.5,4.5-2.3,7.1-2.3c2.4,0,4.6,0.7,6.5,2c-1.6-0.7-3.1-1-4.6-1c-2.5,0-4.9,0.6-7.3,1.9
		c-2.4,1.3-4.3,3-5.8,5.3c-1.5,2.3-2.3,4.7-2.3,7.3c0,2.3,0.7,4.3,2.1,5.9c1.6,1.8,3.7,2.7,6.2,2.7c2,0,4.3-0.9,6-2.1
		c0.8-0.6,1.8-1.3,2.7-2.2c1-0.9,1.8-1.7,2.4-2.4c0.6-0.7,1.3-1.5,2.1-2.4c0.8-0.9,1.9-2.4,3.3-4.5c1.4-2.1,2.9-4.1,4.4-6.2
		c1.5-2.1,3.1-4.2,4.9-6.5c1.8-2.2,3.7-4.3,5.8-6.3c2.1-2,4.2-3.5,6.2-4.7c-2.4,0.1-4.5,0.3-6.1,0.5c-1.6,0.2-3.5,0.7-5.6,1.4
		c-1.8,0.6-3.7,1.4-5.8,2.8c-3,1.9-5.4,4.6-5.4,7.9c0,2.1,1.4,3.7,3.6,3.8v0.1c-1.2,0-2.2-0.5-3-1.3c-0.8-0.9-1.2-2-1.2-3.4
		c0-2.8,1.5-5.4,3.7-7.2c2.3-1.9,4.9-3.2,7.7-4c1-0.3,2.1-0.5,3.3-0.6c1.2-0.2,2.2-0.2,2.8-0.3c0.7,0,1.8-0.1,3.5-0.1
		c1.7,0,2.7,0,3,0c1.5-0.8,3-1.3,4.3-1.3C71.7,251,72.1,251.2,72.1,251.4z"/>
	<path d="M60.8,272c0-1.7,0.3-3.2,0.8-4.6c0.6-1.4,1.3-2.7,2.3-3.8c1-1.1,2.1-1.9,3.4-2.6c1.3-0.6,2.7-0.9,4.2-0.9
		c1.5,0,2.9,0.3,4.2,0.9c1.3,0.6,2.4,1.5,3.4,2.6c1,1.1,1.7,2.3,2.3,3.8c0.6,1.4,0.8,3,0.8,4.6c0,1.7-0.3,3.2-0.8,4.7
		c-0.6,1.5-1.3,2.7-2.3,3.8c-1,1.1-2.1,1.9-3.4,2.6c-1.3,0.6-2.7,0.9-4.2,0.9c-1.5,0-2.9-0.3-4.2-0.9c-1.3-0.6-2.4-1.5-3.4-2.6
		c-1-1.1-1.7-2.4-2.3-3.8C61.1,275.3,60.8,273.7,60.8,272z M71.5,283.2c1.2,0,2.3-0.3,3.4-0.9c1.1-0.6,2-1.4,2.8-2.4
		c0.8-1,1.4-2.2,1.9-3.6c0.5-1.4,0.7-2.8,0.7-4.4c0-1.5-0.2-3-0.7-4.3c-0.5-1.3-1.1-2.5-1.9-3.5c-0.8-1-1.7-1.8-2.8-2.4
		c-1.1-0.6-2.2-0.9-3.4-0.9c-1.2,0-2.3,0.3-3.4,0.9c-1.1,0.6-2,1.4-2.8,2.4c-0.8,1-1.4,2.2-1.9,3.5c-0.5,1.3-0.7,2.8-0.7,4.3
		c0,1.5,0.2,3,0.7,4.4c0.5,1.4,1.1,2.6,1.9,3.6c0.8,1,1.7,1.8,2.8,2.4C69.1,282.9,70.3,283.2,71.5,283.2z"/>
	<path d="M107.3,260.3h2.6l15.5,20v-17.7c-0.1-0.7-0.3-1.2-0.6-1.6c-0.3-0.4-0.8-0.7-1.3-0.7v0h4.5v0c-0.5,0-1,0.2-1.3,0.7
		c-0.4,0.5-0.5,1.1-0.5,1.7v20.7h-0.7l-15.5-20.1V281c0,0.7,0.2,1.3,0.6,1.7c0.4,0.5,0.8,0.7,1.3,0.8v0h-4.5v0
		c0.5,0,0.9-0.3,1.3-0.7c0.3-0.4,0.5-1,0.6-1.6v-18.5c0-0.7-0.2-1.2-0.6-1.6C108.2,260.6,107.8,260.4,107.3,260.3L107.3,260.3z"/>
	<path d="M132.8,260.3h2.6l15.5,20v-17.7c-0.1-0.7-0.3-1.2-0.6-1.6c-0.3-0.4-0.8-0.7-1.3-0.7v0h4.5v0c-0.5,0-1,0.2-1.3,0.7
		c-0.4,0.5-0.5,1.1-0.5,1.7v20.7h-0.7l-15.5-20.1V281c0,0.7,0.2,1.3,0.6,1.7c0.4,0.5,0.8,0.7,1.3,0.8v0h-4.5v0
		c0.5,0,0.9-0.3,1.3-0.7c0.3-0.4,0.5-1,0.6-1.6v-18.5c0-0.7-0.2-1.2-0.6-1.6C133.7,260.6,133.3,260.4,132.8,260.3L132.8,260.3z"/>
	<g>
		<path d="M90.7,269.3c-0.3,0.7-0.5,1.3-0.6,1.9l1.8-5.1L90.7,269.3z"/>
		<path d="M87.7,283c0,0,0.7,0.7,1.2,0.7h-4.7c0,0,0.6,0,1.3-1.3c0.2-0.3,1.3-3,1.3-3c0.7-1.7,1.6-3.8,2.4-5.9h0.1
			c-0.5,1.2-0.8,2.4-1.2,3.6c-0.5,1.8-0.8,3.3-0.8,4.5c0,0,0,0,0,0v0.1C87.2,282.2,87.4,282.6,87.7,283z"/>
		<path d="M99.2,283c-0.3,0.4-0.7,0.6-1.2,0.6h6c-0.5-0.1-0.9-0.3-1.3-0.9c-0.4-0.5-0.7-1.1-0.9-1.7l-7-19.4l-0.7-1.9l-0.7,1.9
			l-0.2,0.4l-0.2,0.6l-0.9,2.5l0,0l-0.3,0.8l-1.8,5.1c-0.4,1.5-0.5,2.7-0.5,3.6c0.1,0.9,0.3,1.6,0.6,2.1c0.2,0.3,0.3,0.6,0.6,0.8
			c0.8,0.9,1.9,1.2,2.8,1.2c1.3,0,2.4-0.5,3.2-1.2c0.3-0.3,0.6-0.5,0.9-0.8c0.1-0.1,0.3-0.3,0.4-0.4l0.1,0.2l0.1,0.2l0.5,1.3l0,0
			l0.9,2.4C99.8,281.6,99.8,282.4,99.2,283C99.2,283,99.2,283,99.2,283z M97.6,277c-0.3,0.3-0.6,0.5-0.9,0.8c-0.8,0.5-1.8,1-3.1,1
			c-0.8,0-1.8-0.3-2.5-1c-0.2-0.2-0.4-0.5-0.6-0.8c-0.4-0.7-0.6-1.5-0.6-2.7c0-1.2,0.3-2.8,1-4.8l1.5-4l0.9-2.3l0.3,0.8l0.4,1v0
			l4.2,11.5C97.9,276.7,97.8,276.9,97.6,277z"/>
	</g>
	<g>
		<path d="M163.2,269.3c-0.3,0.7-0.5,1.3-0.6,1.9l1.8-5.1L163.2,269.3z"/>
		<path d="M160.1,283c0,0,0.7,0.7,1.2,0.7h-4.7c0,0,0.6,0,1.3-1.3c0.2-0.3,1.3-3,1.3-3c0.7-1.7,1.6-3.8,2.4-5.9h0.1
			c-0.5,1.2-0.8,2.4-1.2,3.6c-0.5,1.8-0.8,3.3-0.8,4.5c0,0,0,0,0,0v0.1C159.6,282.2,159.8,282.6,160.1,283z"/>
		<path d="M171.6,283c-0.3,0.4-0.7,0.6-1.2,0.6h6c-0.5-0.1-0.9-0.3-1.3-0.9c-0.4-0.5-0.7-1.1-0.9-1.7l-7-19.4l-0.7-1.9l-0.7,1.9
			l-0.2,0.4l-0.2,0.6l-0.9,2.5l0,0l-0.3,0.8l-1.8,5.1c-0.4,1.5-0.5,2.7-0.5,3.6c0.1,0.9,0.3,1.6,0.6,2.1c0.2,0.3,0.3,0.6,0.6,0.8
			c0.8,0.9,1.9,1.2,2.8,1.2c1.3,0,2.4-0.5,3.2-1.2c0.3-0.3,0.6-0.5,0.9-0.8c0.1-0.1,0.3-0.3,0.4-0.4l0.1,0.2l0.1,0.2l0.5,1.3l0,0
			l0.9,2.4C172.2,281.6,172.2,282.4,171.6,283C171.7,283,171.7,283,171.6,283z M170,277c-0.3,0.3-0.6,0.5-0.9,0.8
			c-0.8,0.5-1.8,1-3.1,1c-0.8,0-1.8-0.3-2.5-1c-0.2-0.2-0.4-0.5-0.6-0.8c-0.4-0.7-0.6-1.5-0.6-2.7c0-1.2,0.3-2.8,1-4.8l1.5-4
			l0.9-2.3l0.3,0.8l0.4,1v0l4.2,11.5C170.3,276.7,170.2,276.9,170,277z"/>
	</g>
</g>
<g>
	<path d="M257.8,251.4c0,0.3-0.5,0.6-1.5,0.8c-0.9,0.2-2,0.3-3.4,0.4c-4.5,2.4-8.2,6.1-10.8,10.2c-1.3,2-2.5,4-3.6,6l-3.4,6.3
		c-1.3,2.3-2.4,4.1-3.5,5.6c-4.2,5.9-9.9,9.5-16.6,9.5c-3,0-5.4-1-7.1-2.9c-1.6-1.8-2.4-4-2.4-6.6c0-2.4,0.6-4.7,1.8-7
		c1.2-2.3,2.9-4.2,5.1-5.7c2.2-1.5,4.5-2.3,7.1-2.3c2.4,0,4.6,0.7,6.5,2c-1.6-0.7-3.1-1-4.6-1c-2.5,0-4.9,0.6-7.3,1.9
		c-2.4,1.3-4.3,3-5.8,5.3c-1.5,2.3-2.3,4.7-2.3,7.3c0,2.3,0.7,4.3,2.1,5.9c1.6,1.8,3.7,2.7,6.2,2.7c2,0,4.3-0.9,6-2.1
		c0.8-0.6,1.8-1.3,2.7-2.2c1-0.9,1.8-1.7,2.4-2.4c0.6-0.7,1.3-1.5,2.1-2.4c0.8-0.9,1.9-2.4,3.3-4.5c1.4-2.1,2.9-4.1,4.4-6.2
		c1.5-2.1,3.1-4.2,4.9-6.5c1.8-2.2,3.7-4.3,5.8-6.3c2.1-2,4.2-3.5,6.2-4.7c-2.4,0.1-4.5,0.3-6.1,0.5c-1.6,0.2-3.5,0.7-5.6,1.4
		c-1.8,0.6-3.7,1.4-5.8,2.8c-3,1.9-5.4,4.6-5.4,7.9c0,2.1,1.4,3.7,3.6,3.8v0.1c-1.2,0-2.2-0.5-3-1.3c-0.8-0.9-1.2-2-1.2-3.4
		c0-2.8,1.5-5.4,3.7-7.2c2.3-1.9,4.9-3.2,7.7-4c1-0.3,2.1-0.5,3.3-0.6c1.2-0.2,2.2-0.2,2.8-0.3c0.7,0,1.8-0.1,3.5-0.1
		c1.7,0,2.7,0,3,0c1.5-0.8,3-1.3,4.3-1.3C257.5,251,257.8,251.1,257.8,251.4z"/>
	<path d="M267.1,261.5L267.1,261.5l12.3,0c0.9,0,1.8,0.2,2.6,0.5c0.8,0.4,1.5,0.8,2.1,1.4c0.6,0.6,1.1,1.3,1.4,2.1
		c0.3,0.8,0.5,1.7,0.5,2.6c0,1.5-0.4,2.9-1.3,4c-0.9,1.2-2,2-3.3,2.4c1.4,0.4,2.5,1.1,3.3,2.1c0.8,1,1.3,2,1.3,3.2v2.7
		c0.1,0.6,0.3,1,0.6,1.4c0.3,0.4,0.7,0.5,1.2,0.5v0h-2.7c-0.5,0-0.8-0.2-0.9-0.5c-0.1-0.3-0.2-0.8-0.2-1.5v-2.8c0-0.7-0.2-1.4-0.5-2
		c-0.3-0.6-0.7-1.1-1.3-1.6c-0.5-0.4-1.1-0.8-1.8-1c-0.7-0.3-1.4-0.4-2.2-0.4h-7.5v7.3c0.1,0.7,0.3,1.2,0.6,1.7
		c0.3,0.5,0.8,0.7,1.3,0.7v0h-5.6v0c0.5,0,0.9-0.2,1.3-0.7c0.4-0.5,0.6-1,0.6-1.7v-18.3c0-0.7-0.2-1.3-0.6-1.7
		C268,261.7,267.6,261.5,267.1,261.5z M270.8,274.2h8.6c0.7,0,1.3-0.2,1.8-0.5c0.6-0.3,1.1-0.7,1.5-1.3c0.4-0.5,0.8-1.2,1-1.9
		c0.2-0.7,0.4-1.5,0.4-2.3c0-0.8-0.1-1.6-0.4-2.3c-0.2-0.7-0.6-1.4-1-1.9c-0.4-0.5-0.9-1-1.5-1.3c-0.6-0.3-1.2-0.5-1.8-0.5h-8.6
		V274.2z"/>
	<path d="M297.8,261.4L297.8,261.4c-0.5,0-0.9,0.3-1.3,0.7c-0.4,0.5-0.5,1-0.5,1.7v14.9c0,0.7,0.2,1.3,0.5,1.9
		c0.3,0.6,0.8,1.1,1.4,1.6c0.6,0.4,1.3,0.8,2.1,1c0.8,0.3,1.7,0.4,2.6,0.4c0.9,0,1.8-0.1,2.7-0.4c0.9-0.3,1.6-0.6,2.3-1
		c0.7-0.4,1.2-1,1.6-1.6c0.4-0.6,0.6-1.2,0.6-1.9l0.2-15.5c-0.1-0.5-0.3-1-0.7-1.3c-0.3-0.4-0.7-0.5-1.1-0.5v0h4.8v0
		c-0.5,0-0.9,0.2-1.3,0.7c-0.4,0.5-0.5,1-0.5,1.7v14.9c0,0.8-0.2,1.6-0.7,2.3c-0.4,0.7-1.1,1.3-1.8,1.8c-0.8,0.5-1.7,0.9-2.7,1.2
		c-1,0.3-2.1,0.5-3.3,0.5c-1.2,0-2.3-0.2-3.3-0.5c-1-0.3-1.9-0.7-2.7-1.2c-0.8-0.5-1.4-1.1-1.8-1.8c-0.4-0.7-0.7-1.5-0.7-2.3v-14.9
		c0-0.7-0.2-1.3-0.6-1.7c-0.4-0.5-0.8-0.7-1.3-0.7v0H297.8z"/>
	<path d="M317.9,283.4v-5.3h0.1c0,0.7,0.2,1.5,0.7,2.2c0.5,0.7,1.1,1.3,1.9,1.9c0.8,0.5,1.6,1,2.6,1.3c1,0.3,1.9,0.5,2.9,0.5
		c1,0,1.8-0.1,2.7-0.4c0.8-0.3,1.6-0.7,2.2-1.2s1.1-1.1,1.5-1.7c0.4-0.7,0.5-1.3,0.5-2.1c0-0.7-0.2-1.4-0.5-2
		c-0.3-0.6-0.8-1.1-1.5-1.5c-0.6-0.4-1.4-0.8-2.2-1.1c-0.8-0.3-1.8-0.6-2.7-0.7c-1.1-0.2-2.1-0.5-3.1-0.8c-1-0.4-1.8-0.8-2.6-1.3
		c-0.7-0.5-1.3-1.1-1.8-1.8c-0.4-0.7-0.7-1.5-0.7-2.3c0-0.9,0.2-1.7,0.6-2.4c0.4-0.8,1-1.4,1.7-2c0.7-0.6,1.6-1,2.6-1.3
		c1-0.3,2-0.5,3.2-0.5c1,0,1.9,0.2,2.9,0.5c1,0.4,1.9,0.8,2.7,1.4c0.8,0.1,1.3-0.1,1.3-0.8h0v5.6h-0.2c0-0.8-0.2-1.6-0.6-2.3
		c-0.4-0.7-0.9-1.4-1.5-1.9c-0.6-0.5-1.4-1-2.2-1.3c-0.8-0.3-1.7-0.5-2.5-0.5s-1.6,0.1-2.4,0.4c-0.8,0.3-1.4,0.7-2,1.2
		c-0.5,0.5-1,1.1-1.3,1.7c-0.3,0.7-0.5,1.4-0.5,2.1c0,0.7,0.2,1.4,0.5,2c0.3,0.6,0.8,1.1,1.3,1.6c0.5,0.5,1.2,0.8,1.9,1.2
		c0.7,0.3,1.5,0.5,2.4,0.7c1.3,0.3,2.5,0.6,3.6,0.9c1.1,0.4,2,0.8,2.8,1.3c0.8,0.5,1.4,1.1,1.8,1.7c0.4,0.7,0.7,1.4,0.7,2.3
		c0,0.8-0.2,1.6-0.7,2.4c-0.5,0.8-1.1,1.4-1.9,2c-0.8,0.5-1.8,1-2.8,1.3c-1.1,0.3-2.2,0.5-3.4,0.5c-1.2,0-2.4-0.2-3.6-0.6
		c-1.2-0.4-2.3-0.9-3.3-1.5C318.3,282.3,318,282.6,317.9,283.4L317.9,283.4z"/>
	<path d="M339.7,284.7v-0.8l14.5-21.7h-11.7c-0.3,0-0.6,0.1-0.9,0.2c-0.3,0.1-0.6,0.3-0.8,0.4c-0.2,0.2-0.4,0.4-0.6,0.6
		c-0.2,0.2-0.2,0.5-0.2,0.7h0l0.4-2.7h16.1v0.8L342,283.9h12.6c0.6-0.1,1.1-0.3,1.7-0.6c0.5-0.3,0.8-0.7,0.8-1.2h0l-0.4,2.6H339.7z"
		/>
	<path d="M361.9,284.7L361.9,284.7c0.5,0,0.9-0.3,1.3-0.7c0.3-0.4,0.5-1,0.6-1.6v-18.5c-0.1-0.7-0.3-1.2-0.6-1.6
		c-0.3-0.4-0.8-0.7-1.3-0.7v0h16.8v2.7h0c0-0.5-0.2-0.9-0.7-1.3c-0.4-0.4-1-0.6-1.7-0.6h-10.7v10.4h7.2c0.6-0.1,1.1-0.3,1.5-0.6
		c0.4-0.4,0.6-0.8,0.6-1.3h0v4.6h0c0-0.5-0.2-0.9-0.6-1.3c-0.4-0.3-0.9-0.6-1.5-0.6h-7.2v10.5h10.8c0.6-0.1,1.1-0.3,1.5-0.6
		c0.4-0.3,0.6-0.8,0.6-1.3h0v2.7H361.9z"/>
	<path d="M381.8,261.1h6v0c-0.4,0-0.7,0.1-1,0.4c-0.3,0.3-0.5,0.6-0.7,1l5.9,17.6l5.8-19.2l6.4,19.2l5.1-17
		c-0.1-0.6-0.3-1.1-0.6-1.5c-0.3-0.4-0.8-0.6-1.2-0.6v0h5.2v0c-0.5,0-1,0.2-1.5,0.6s-0.9,1-1.1,1.6l-6.4,21.2l-6.5-19.4l-5.7,19.4
		l-7.2-21.5c-0.3-0.6-0.7-1-1.1-1.4C382.7,261.4,382.2,261.2,381.8,261.1L381.8,261.1z"/>
	<path d="M415.8,283.4v-5.3h0.1c0,0.7,0.2,1.5,0.7,2.2c0.5,0.7,1.1,1.3,1.9,1.9c0.8,0.5,1.6,1,2.6,1.3c1,0.3,1.9,0.5,2.9,0.5
		c1,0,1.8-0.1,2.7-0.4c0.8-0.3,1.6-0.7,2.2-1.2c0.6-0.5,1.1-1.1,1.5-1.7c0.4-0.7,0.5-1.3,0.5-2.1c0-0.7-0.2-1.4-0.5-2
		c-0.3-0.6-0.8-1.1-1.5-1.5c-0.6-0.4-1.4-0.8-2.2-1.1c-0.8-0.3-1.8-0.6-2.7-0.7c-1.1-0.2-2.1-0.5-3.1-0.8c-1-0.4-1.8-0.8-2.6-1.3
		c-0.7-0.5-1.3-1.1-1.8-1.8c-0.4-0.7-0.7-1.5-0.7-2.3c0-0.9,0.2-1.7,0.6-2.4c0.4-0.8,1-1.4,1.7-2c0.7-0.6,1.6-1,2.6-1.3
		c1-0.3,2-0.5,3.2-0.5c1,0,1.9,0.2,2.9,0.5c1,0.4,1.9,0.8,2.7,1.4c0.8,0.1,1.3-0.1,1.3-0.8h0v5.6h-0.2c0-0.8-0.2-1.6-0.6-2.3
		c-0.4-0.7-0.9-1.4-1.5-1.9c-0.6-0.5-1.4-1-2.2-1.3c-0.8-0.3-1.7-0.5-2.5-0.5s-1.6,0.1-2.4,0.4c-0.8,0.3-1.4,0.7-2,1.2
		c-0.5,0.5-1,1.1-1.3,1.7c-0.3,0.7-0.5,1.4-0.5,2.1c0,0.7,0.2,1.4,0.5,2c0.3,0.6,0.8,1.1,1.3,1.6c0.5,0.5,1.2,0.8,1.9,1.2
		c0.7,0.3,1.5,0.5,2.4,0.7c1.3,0.3,2.5,0.6,3.6,0.9c1.1,0.4,2,0.8,2.8,1.3c0.8,0.5,1.4,1.1,1.8,1.7c0.4,0.7,0.7,1.4,0.7,2.3
		c0,0.8-0.2,1.6-0.7,2.4c-0.5,0.8-1.1,1.4-1.9,2c-0.8,0.5-1.8,1-2.8,1.3c-1.1,0.3-2.2,0.5-3.4,0.5c-1.2,0-2.4-0.2-3.6-0.6
		c-1.2-0.4-2.3-0.9-3.3-1.5C416.3,282.3,415.9,282.6,415.8,283.4L415.8,283.4z"/>
	<path d="M437.6,261.4h5.6v0c-0.5,0-0.9,0.2-1.3,0.7c-0.4,0.5-0.6,1.1-0.6,1.7v8.6l12.2-10.5c-0.3-0.4-0.8-0.6-1.2-0.6v0h5v0
		c-0.5,0-1.1,0.2-1.9,0.5c-0.7,0.3-1.4,0.8-2.1,1.3l-7.9,6.8l9.2,12.1c0.3,0.3,0.5,0.6,0.9,0.9c0.3,0.3,0.7,0.6,1,0.8
		c0.3,0.2,0.7,0.4,1,0.6c0.3,0.1,0.6,0.2,0.9,0.2v0h-6.7v0c0.3,0,0.6-0.1,0.9-0.3c0.3-0.2,0.5-0.5,0.7-0.8l-9.2-12.2l-2.7,2.3v8.6
		c0,0.7,0.2,1.3,0.6,1.7c0.4,0.5,0.8,0.7,1.3,0.7v0h-5.6v0c0.5,0,0.9-0.2,1.3-0.7c0.3-0.4,0.5-1,0.6-1.6v-18.5
		c-0.1-0.7-0.3-1.2-0.6-1.6C438.5,261.7,438.1,261.5,437.6,261.4L437.6,261.4z"/>
	<g>
		<path d="M249.8,270.4c-0.3,0.7-0.5,1.3-0.6,1.9l1.8-5.1L249.8,270.4z"/>
		<path d="M246.8,284c0,0,0.7,0.7,1.2,0.7h-4.7c0,0,0.6,0,1.3-1.3c0.2-0.3,1.3-3,1.3-3c0.7-1.7,1.6-3.8,2.4-5.9h0.1
			c-0.5,1.2-0.8,2.4-1.2,3.6c-0.5,1.8-0.8,3.3-0.8,4.5c0,0,0,0,0,0v0.1C246.3,283.3,246.5,283.7,246.8,284z"/>
		<path d="M258.3,284.1c-0.3,0.4-0.7,0.6-1.2,0.6h6c-0.5-0.1-0.9-0.3-1.3-0.9c-0.4-0.5-0.7-1.1-0.9-1.7l-7-19.4l-0.7-1.9l-0.7,1.9
			l-0.2,0.4l-0.2,0.6l-0.9,2.5l0,0l-0.3,0.8l-1.8,5.1c-0.4,1.5-0.5,2.7-0.5,3.6c0.1,0.9,0.3,1.6,0.6,2.1c0.2,0.3,0.3,0.6,0.6,0.8
			c0.8,0.9,1.9,1.2,2.8,1.2c1.3,0,2.4-0.5,3.2-1.2c0.3-0.3,0.6-0.5,0.9-0.8c0.1-0.1,0.3-0.3,0.4-0.4l0.1,0.2l0.1,0.2l0.5,1.3l0,0
			l0.9,2.4C258.9,282.7,258.9,283.5,258.3,284.1C258.3,284.1,258.3,284.1,258.3,284.1z M256.7,278.1c-0.3,0.3-0.6,0.5-0.9,0.8
			c-0.8,0.5-1.8,1-3.1,1c-0.8,0-1.8-0.3-2.5-1c-0.2-0.2-0.4-0.5-0.6-0.8c-0.4-0.7-0.6-1.5-0.6-2.7c0-1.2,0.3-2.8,1-4.8l1.5-4
			l0.9-2.3l0.3,0.8l0.4,1v0l4.2,11.5C257,277.8,256.9,277.9,256.7,278.1z"/>
	</g>
	<g>
		<path d="M467.3,270.3c-0.3,0.7-0.5,1.3-0.6,1.9l1.8-5.1L467.3,270.3z"/>
		<path d="M464.3,283.9c0,0,0.7,0.7,1.2,0.7h-4.7c0,0,0.6,0,1.3-1.3c0.2-0.3,1.3-3,1.3-3c0.7-1.7,1.6-3.8,2.4-5.9h0.1
			c-0.5,1.2-0.8,2.4-1.2,3.6c-0.5,1.8-0.8,3.3-0.8,4.5c0,0,0,0,0,0v0.1C463.8,283.2,463.9,283.6,464.3,283.9z"/>
		<path d="M475.8,284c-0.3,0.4-0.7,0.6-1.2,0.6h6c-0.5-0.1-0.9-0.3-1.3-0.9c-0.4-0.5-0.7-1.1-0.9-1.7l-7-19.4l-0.7-1.9l-0.7,1.9
			l-0.2,0.4l-0.2,0.6l-0.9,2.5l0,0l-0.3,0.8l-1.8,5.1c-0.4,1.5-0.5,2.7-0.5,3.6c0.1,0.9,0.3,1.6,0.6,2.1c0.2,0.3,0.3,0.6,0.6,0.8
			c0.8,0.9,1.9,1.2,2.8,1.2c1.3,0,2.4-0.5,3.2-1.2c0.3-0.3,0.6-0.5,0.9-0.8c0.1-0.1,0.3-0.3,0.4-0.4l0.1,0.2l0.1,0.2l0.5,1.3l0,0
			l0.9,2.4C476.4,282.6,476.3,283.4,475.8,284C475.8,284,475.8,284,475.8,284z M474.1,278c-0.3,0.3-0.6,0.5-0.9,0.8
			c-0.8,0.5-1.8,1-3.1,1c-0.8,0-1.8-0.3-2.5-1c-0.2-0.2-0.4-0.5-0.6-0.8c-0.4-0.7-0.6-1.5-0.6-2.7c0-1.2,0.3-2.8,1-4.8l1.5-4
			l0.9-2.3l0.3,0.8l0.4,1v0l4.2,11.5C474.5,277.7,474.3,277.8,474.1,278z"/>
	</g>
</g>
</svg>
