<?xml version="1.0" encoding="utf-8"?>
<!-- Generator: Adobe Illustrator 25.4.8, SVG Export Plug-In . SVG Version: 6.00 Build 0)  -->
<svg version="1.1" id="Warstwa_1" xmlns="http://www.w3.org/2000/svg" xmlns:xlink="http://www.w3.org/1999/xlink" x="0px" y="0px"
	 viewBox="0 0 500 500" style="enable-background:new 0 0 500 500;" xml:space="preserve">
<g>
	<path d="M376.3,194c-5.9,0-12.6,2-19.7,5.9c-1.6,0-6.2,0-13.9,0.1c-7.7,0-13,0.1-16.1,0.3c-3,0.1-7.4,0.4-13,1.2
		c-5.6,0.6-10.7,1.5-15.3,2.8c-4.6,1.2-9,2.8-13.4,4.7c1.8-3.3,3.7-6.6,5.7-9.9c2.7-4.5,5.6-9,8.6-13.6c12.3-19,29.4-36,50.1-47.1
		c6.5-0.1,11.7-0.7,15.9-1.7c4.8-1,7.1-2.2,7.1-3.7c0-1.2-1.4-1.8-4.3-1.8c-6,0-12.6,2.1-19.7,6c-1.6,0-6.2,0-13.9,0.1
		c-7.6,0-13,0.1-16.1,0.3c-3,0.1-7.4,0.4-13,1.2c-5.7,0.6-10.7,1.5-15.4,2.7c-12.7,3.5-25,9.5-35.4,18.2
		c-10.4,8.5-17.2,20.5-17.2,33.2c0,6.2,1.9,11.5,5.5,15.5c3.7,3.9,8.4,5.9,14,6.1v-0.6c-10.4-0.1-16.8-7.5-16.8-17.3
		c0.1-15.1,11.1-27.9,24.9-36.5c9.4-6.4,18-10.1,26.6-13c9.7-3.2,18.4-5.3,25.9-6.4c7.6-1,17.1-1.7,28.2-2.2
		c-9.4,5.5-19.1,12.7-28.8,21.8c-9.7,9.1-18.7,18.8-26.9,29.1c-4,4.9-7.8,9.8-11.5,14.6c-3.9,5.1-7.6,10-11,14.9
		c-1.6,1.1-3.1,2.3-4.6,3.6c-8.4,6.9-14.5,16.1-16.5,26.1c-0.4,2.3-0.7,4.7-0.7,7.1c0,5.3,1.4,9.9,4,13.6c0.4,0.7,0.9,1.3,1.5,1.9
		c3.7,3.9,8.4,5.9,14,6.1v-0.6c-6.9-0.1-12.1-3.4-14.7-8.5c-1.4-2.6-2.1-5.6-2.1-8.9c0.1-15,11.1-27.9,24.9-36.5c2-1.4,4-2.6,6-3.7
		c7.1-4.2,13.9-7,20.7-9.2c9.7-3.2,18.4-5.4,25.9-6.4c7.6-1,17.1-1.8,28.2-2.2c-9.4,5.5-19.1,12.7-28.8,21.9
		c-9.7,9.1-18.7,18.8-26.9,29.1c-8.2,10.3-15.9,20.3-22.7,29.8c-6.8,9.4-13.6,19-20.2,28.5c-6.6,9.4-11.7,16.3-15.2,20.5
		c-3.5,4.2-6.7,7.9-9.6,11.1c-2.9,3.2-6.5,6.8-11,10.9c-4.5,4.2-8.7,7.5-12.6,10.3c-7.9,5.4-18.5,9.7-27.8,9.7
		c-11.7,0-21.2-4.2-28.7-12.4c-6.5-7.4-9.8-16.5-9.8-27.2c0-10.1,2.5-19.8,7.5-28.8c2,1.4,4.1,2.5,6.4,3.5c5.6,2.4,12,3.7,19.3,3.7
		c28.3,0,53.6-15.1,72.4-38c-3.7-4.5-5.9-9.9-6.5-15.9c-1.2,1.6-3.6,4.6-4.6,6c-1.3,1.7-2.4,3.2-3.5,4.4c-0.4,0.4-0.7,0.9-1.1,1.3
		c-8.3-5.2-17.5-7.8-27.8-7.8c-11.7,0-22.6,3.5-32.6,10.6c-10,6.9-17.8,15.8-23.4,26.3c-0.4,0.9-0.9,1.7-1.2,2.6
		c-1.2-1-2.4-2.2-3.5-3.4c-0.6-0.7-1.2-1.4-1.8-2.2c-5.3-6.9-8-15.3-8-25c0-12,3.5-23.3,10.6-33.7c7.1-10.6,16-18.7,26.9-24.6
		c10.9-5.9,22.1-8.8,33.6-8.8c6.8,0,13.7,1.6,21.1,4.6c-8.8-6.2-18.8-9.2-29.9-9.2c-11.7,0-22.6,3.5-32.5,10.5
		c-10,7-17.8,15.8-23.4,26.3c-5.5,10.6-8.3,21.4-8.3,32.3c0,11.3,3.2,20.9,9.5,28.8c0.4,0.6,0.9,1.1,1.4,1.7
		c1.2,1.4,2.6,2.7,3.9,3.8c-4.3,9.4-6.5,19-6.5,28.6c0,12.1,3.6,22.3,10.8,30.5c7.8,8.8,18.7,13.3,32.7,13.3
		c31.1,0,57.1-16.5,76.7-43.7c4.9-6.8,10.3-15.5,16-25.9L291,276c4.9-9,10.4-18.2,16.6-27.6c12.3-19,29.3-36,50-47.2
		c6.5-0.1,11.7-0.7,15.9-1.7c4.8-1,7.1-2.2,7.1-3.7C380.6,194.6,379.2,194,376.3,194z M151.4,299.7c7.1-10.5,16.1-18.7,26.9-24.6
		c10.8-5.9,22.1-8.8,33.5-8.8c6,0,12.2,1.2,18.6,3.6c-1.7,2.1-3.4,4.1-5,5.9c-1,1.2-2.1,2.4-3.1,3.5c-2.9,3.2-6.5,6.8-11,10.8
		c-4.5,4.2-8.7,7.5-12.6,10.3c-7.9,5.3-18.5,9.7-27.8,9.7c-5.8,0-11-1-15.7-3c-2.2-0.9-4.4-2.1-6.4-3.5
		C149.7,302.3,150.5,301,151.4,299.7z"/>
</g>
<g>
	<path d="M250.1,451.1c-93.5,0-169.6-76.1-169.6-169.6v-64.9c0-93.5,76.1-169.6,169.6-169.6S419.7,123,419.7,216.6v64.9
		C419.7,375,343.6,451.1,250.1,451.1z M250.1,49.6c-92,0-166.9,74.9-166.9,166.9v64.9c0,92,74.9,166.9,166.9,166.9
		S417,373.5,417,281.5v-64.9C417,124.5,342.1,49.6,250.1,49.6z"/>
</g>
<g>
	<path d="M288.2,451.1H212c-72.5,0-131.5-59-131.5-131.5V178.5c0-72.5,59-131.5,131.5-131.5h76.2c72.5,0,131.5,59,131.5,131.5v141.1
		C419.7,392.1,360.7,451.1,288.2,451.1z M212,49.6c-71.1,0-128.9,57.8-128.9,128.9v141.1c0,71.1,57.8,128.9,128.9,128.9h76.2
		c71.1,0,128.9-57.8,128.9-128.9V178.5c0-71.1-57.8-128.9-128.9-128.9H212z"/>
</g>
</svg>
