<?xml version="1.0" encoding="UTF-8"?>
<!-- Created with Inkscape (http://www.inkscape.org/) -->
<svg id="SVGRoot" width="500px" height="200px" version="1.1" viewBox="0 0 500 200" xmlns="http://www.w3.org/2000/svg"><g><g transform="translate(4.0374 -116.9)"><path class="st0" d="m179.7 309.9c-0.5 0-1-0.1-1.4-0.3s-0.8-0.5-1-0.8-0.4-0.8-0.4-1.3h0.7c0 0.4 0.1 0.7 0.3 1s0.4 0.4 0.8 0.6c0.3 0.1 0.7 0.2 1 0.2 0.4 0 0.8-0.1 1.1-0.2s0.5-0.3 0.7-0.5 0.2-0.5 0.2-0.7c0-0.4-0.1-0.7-0.3-0.9s-0.5-0.4-1-0.5l-1.3-0.4c-0.7-0.2-1.2-0.5-1.5-0.8s-0.5-0.7-0.5-1.2c0-0.6 0.2-1.1 0.7-1.4 0.4-0.4 1.1-0.6 1.9-0.6 0.7 0 1.3 0.2 1.8 0.5 0.4 0.3 0.7 0.8 0.7 1.3h-0.7c-0.1-0.4-0.2-0.7-0.5-0.9s-0.7-0.3-1.2-0.3c-0.6 0-1 0.1-1.3 0.4s-0.5 0.6-0.5 1c0 0.3 0.1 0.6 0.3 0.8s0.5 0.3 0.9 0.5l1.5 0.5c0.5 0.2 1 0.4 1.3 0.7s0.5 0.8 0.5 1.3c0 0.4-0.1 0.7-0.3 1.1-0.2 0.3-0.5 0.6-0.9 0.8-0.5 0-1 0.1-1.6 0.1z"/><path class="st0" d="m185 309.7 2.7-7.7h0.9l2.6 7.7h-0.8l-0.7-2.1h-3.2l-0.7 2.1zm1.7-2.7h2.8l-1.4-4.1z"/><path class="st0" d="m194.8 302v7.1h3.6v0.6h-4.4v-7.7z"/><path class="st0" d="m203.6 309.9c-0.6 0-1.2-0.1-1.7-0.4s-0.9-0.7-1.2-1.3-0.4-1.3-0.4-2.2 0.1-1.6 0.4-2.2 0.7-1 1.2-1.3 1-0.4 1.7-0.4c0.6 0 1.2 0.1 1.7 0.4s0.9 0.7 1.2 1.3 0.4 1.3 0.4 2.2-0.1 1.6-0.4 2.2-0.7 1-1.2 1.3c-0.6 0.2-1.1 0.4-1.7 0.4zm0-0.7c0.8 0 1.4-0.3 1.8-0.8 0.4-0.6 0.7-1.4 0.7-2.5s-0.2-1.9-0.7-2.5c-0.4-0.6-1.1-0.9-1.8-0.9-0.8 0-1.4 0.3-1.8 0.9s-0.7 1.4-0.7 2.5 0.2 1.9 0.7 2.5c0.4 0.5 1 0.8 1.8 0.8z"/><path class="st0" d="m210 302h0.9l4.1 6.8v-6.8h0.7v7.7h-0.9l-4.2-6.9h0.1v6.9h-0.7z"/><path class="st0" d="m223.7 302h0.7v7.7h-0.7zm4.4 0h1l-4.8 5v-1zm-2.4 3.3 3.7 4.4h-1l-3.3-3.9z"/><path class="st0" d="m234.9 309.9c-0.6 0-1.2-0.1-1.7-0.4s-0.9-0.7-1.2-1.3-0.4-1.3-0.4-2.2 0.1-1.6 0.4-2.2 0.7-1 1.2-1.3 1-0.4 1.7-0.4c0.6 0 1.2 0.1 1.7 0.4s0.9 0.7 1.2 1.3 0.4 1.3 0.4 2.2-0.1 1.6-0.4 2.2-0.7 1-1.2 1.3c-0.6 0.2-1.1 0.4-1.7 0.4zm0-0.7c0.8 0 1.4-0.3 1.8-0.8 0.4-0.6 0.7-1.4 0.7-2.5s-0.2-1.9-0.7-2.5c-0.4-0.6-1.1-0.9-1.8-0.9-0.8 0-1.4 0.3-1.8 0.9s-0.7 1.4-0.7 2.5 0.2 1.9 0.7 2.5c0.4 0.5 1 0.8 1.8 0.8z"/><path class="st0" d="m243.7 309.9c-0.5 0-1-0.1-1.4-0.3s-0.8-0.5-1-0.8-0.4-0.8-0.4-1.3h0.7c0 0.4 0.1 0.7 0.3 1s0.4 0.4 0.8 0.6c0.3 0.1 0.7 0.2 1 0.2 0.4 0 0.8-0.1 1.1-0.2s0.5-0.3 0.7-0.5 0.2-0.5 0.2-0.7c0-0.4-0.1-0.7-0.3-0.9s-0.5-0.4-1-0.5l-1.3-0.4c-0.7-0.2-1.2-0.5-1.5-0.8s-0.5-0.7-0.5-1.2c0-0.6 0.2-1.1 0.7-1.4 0.4-0.4 1.1-0.6 1.9-0.6 0.7 0 1.3 0.2 1.8 0.5 0.4 0.3 0.7 0.8 0.7 1.3h-0.7c-0.1-0.4-0.2-0.7-0.5-0.9s-0.7-0.3-1.2-0.3c-0.6 0-1 0.1-1.3 0.4s-0.5 0.6-0.5 1c0 0.3 0.1 0.6 0.3 0.8s0.5 0.3 0.9 0.5l1.5 0.5c0.5 0.2 1 0.4 1.3 0.7s0.5 0.8 0.5 1.3c0 0.4-0.1 0.7-0.3 1.1-0.2 0.3-0.5 0.6-0.9 0.8-0.5 0-1 0.1-1.6 0.1z"/><path class="st0" d="m249.9 302h1l2.9 5.6h-0.1l2.9-5.6h1v7.7h-0.7v-7h0.2l-3 6h-0.5l-3-6h0.1v7h-0.7v-7.7z"/><path class="st0" d="m261.5 309.7v-7.7h4.6v0.6h-3.9v2.9h3.7v0.6h-3.7v3h3.9v0.6z"/><path class="st0" d="m268.4 302.7v-0.7h5.9v0.6h-2.8l0.2-0.2v7.3h-0.7v-7.3l0.2 0.2h-2.8z"/><path class="st0" d="m275.8 302h0.9l2.4 4h-0.2l2.4-4h0.9l-2.8 4.5v3.2h-0.7v-3.2z"/><path class="st0" d="m287.3 309.9c-0.7 0-1.3-0.2-1.7-0.5-0.5-0.4-0.9-0.8-1.1-1.4-0.3-0.6-0.4-1.3-0.4-2.1s0.1-1.6 0.4-2.1c0.3-0.6 0.7-1 1.2-1.3s1-0.4 1.6-0.4c0.8 0 1.4 0.2 1.9 0.6s0.9 0.9 1.1 1.6l-0.8 0.2c-0.2-0.5-0.5-0.9-0.9-1.2s-0.8-0.5-1.4-0.5c-0.4 0-0.8 0.1-1.2 0.4-0.4 0.2-0.7 0.6-0.9 1.1s-0.3 1.1-0.3 1.8c0 0.6 0.1 1.2 0.3 1.7s0.4 0.9 0.8 1.2 0.8 0.5 1.4 0.5c0.7 0 1.2-0.2 1.6-0.5 0.4-0.4 0.6-0.8 0.6-1.4h0.8c0 0.5-0.1 1-0.4 1.4s-0.6 0.7-1.1 0.9c-0.4-0.1-0.9 0-1.5 0z"/><path class="st0" d="m293.1 309.7v-0.7l4.9-6.6v0.3l-4.9-0.1v-0.6h5.6v0.7l-4.8 6.5-0.1-0.1h4.9v0.7h-5.6z"/><path class="st0" d="m301.9 302h0.9l4.1 6.8h-0.1v-6.8h0.7v7.7h-0.9l-4.2-6.9h0.1v6.9h-0.7v-7.7z"/><path class="st0" d="m310.3 302h0.9l2.4 4h-0.2l2.4-4h0.9l-2.8 4.5v3.2h-0.7v-3.2z"/></g><path class="st0" d="m306.14 29.499c-2.4 0-5.1 0.8-8 2.4-0.6 0-2.5 0-5.6 0.1-3.1 0-5.3 0.1-6.5 0.1-1.2 0.1-3 0.2-5.3 0.5-2.3 0.2-4.3 0.6-6.2 1.1-1.8 0.5-3.7 1.1-5.4 1.9 0.7-1.3 1.5-2.7 2.3-4 1.1-1.8 2.3-3.7 3.5-5.5 5-7.7 11.9-14.6 20.3-19.1 2.6-0.1 4.7-0.3 6.4-0.7 1.9-0.4 2.9-0.9 2.9-1.5 0-0.5-0.6-0.7-1.8-0.7-2.4 0-5.1 0.8-8 2.4-0.6 0-2.5 0-5.6 0.1-3.1 0-5.3 0.1-6.5 0.1-1.2 0.1-3 0.2-5.3 0.5-2.3 0.2-4.3 0.6-6.2 1.1-5.2 1.4-10.1 3.9-14.4 7.4-4.2 3.5-7 8.3-7 13.5 0 2.5 0.8 4.6 2.2 6.3 1.5 1.6 3.4 2.4 5.7 2.5v-0.2c-4.2-0.1-6.8-3-6.8-7 0.1-6.1 4.5-11.3 10.1-14.8 3.8-2.6 7.3-4.1 10.8-5.3 3.9-1.3 7.4-2.2 10.5-2.6s6.9-0.7 11.4-0.9c-3.8 2.2-7.7 5.1-11.7 8.9-3.9 3.7-7.6 7.6-10.9 11.8-1.6 2-3.2 4-4.6 5.9-1.6 2-3.1 4.1-4.5 6-0.6 0.5-1.3 0.9-1.9 1.5-3.4 2.8-5.9 6.5-6.7 10.6-0.2 0.9-0.3 1.9-0.3 2.9 0 2.1 0.6 4 1.6 5.5 0.2 0.3 0.4 0.5 0.6 0.8 1.5 1.6 3.4 2.4 5.7 2.5v-0.2c-2.8 0-4.9-1.4-5.9-3.4-0.6-1-0.8-2.3-0.8-3.6 0.1-6.1 4.5-11.3 10.1-14.8 0.8-0.6 1.6-1.1 2.4-1.5 2.9-1.7 5.6-2.8 8.4-3.7 3.9-1.3 7.4-2.2 10.5-2.6s6.9-0.7 11.4-0.9c-3.8 2.2-7.7 5.2-11.7 8.9-3.9 3.7-7.6 7.6-10.9 11.8s-6.4 8.2-9.2 12.1c-2.7 3.8-5.5 7.7-8.2 11.6-2.7 3.8-4.7 6.6-6.1 8.3s-2.7 3.2-3.9 4.5-2.6 2.8-4.5 4.4c-1.8 1.7-3.5 3-5.1 4.2-3.2 2.2-7.5 3.9-11.2 3.9-4.8 0-8.6-1.7-11.6-5-2.6-3-4-6.7-4-11 0-4.1 1-8 3-11.7 0.8 0.6 1.7 1 2.6 1.4 2.3 1 4.9 1.5 7.8 1.5 11.5 0 21.7-6.1 29.3-15.4-1.5-1.8-2.4-4-2.6-6.5-0.5 0.7-1.4 1.9-1.9 2.4-0.5 0.7-1 1.3-1.4 1.8-0.1 0.2-0.3 0.4-0.4 0.5-3.3-2.1-7.1-3.2-11.2-3.2-4.7 0-9.1 1.4-13.2 4.3-4 2.8-7.2 6.4-9.5 10.7-0.2 0.3-0.4 0.7-0.5 1-0.5-0.4-1-0.9-1.4-1.4-0.2-0.3-0.5-0.6-0.7-0.9-2.2-2.8-3.3-6.2-3.3-10.1 0-4.9 1.4-9.4 4.3-13.6 2.9-4.3 6.5-7.6 10.9-10s9-3.6 13.6-3.6c2.7 0 5.6 0.6 8.5 1.9-3.6-2.5-7.6-3.7-12.1-3.7-4.7 0-9.1 1.4-13.2 4.3-4.1 2.8-7.2 6.4-9.5 10.7-2.2 4.3-3.3 8.7-3.3 13.1 0 4.6 1.3 8.5 3.8 11.7 0.2 0.2 0.4 0.5 0.6 0.7 0.5 0.6 1 1.1 1.6 1.5-1.8 3.8-2.6 7.7-2.6 11.6 0 4.9 1.5 9 4.4 12.4 3.2 3.6 7.6 5.4 13.3 5.4 12.6 0 23.2-6.7 31.1-17.7 2-2.8 4.2-6.3 6.5-10.5l6.4-11.8c2-3.6 4.2-7.4 6.7-11.2 5-7.7 11.9-14.6 20.3-19.1 2.7-0.1 4.8-0.3 6.5-0.7 1.9-0.4 2.9-0.9 2.9-1.5 0-1.2-0.6-1.4-1.8-1.4zm-91.1 42.8c2.9-4.3 6.5-7.6 10.9-10s9-3.6 13.6-3.6c2.4 0 4.9 0.5 7.5 1.5-0.7 0.8-1.4 1.7-2 2.4-0.4 0.5-0.8 1-1.2 1.4-1.2 1.3-2.7 2.8-4.5 4.4-1.8 1.7-3.5 3-5.1 4.2-3.2 2.2-7.5 3.9-11.2 3.9-2.3 0-4.5-0.4-6.4-1.2-0.9-0.4-1.8-0.9-2.6-1.4 0.3-0.5 0.7-1 1-1.6z"/><g transform="translate(4.0374 -116.9)"><path class="st0" d="m72.1 251.4c0 0.3-0.5 0.6-1.5 0.8-0.9 0.2-2 0.3-3.4 0.4-4.5 2.4-8.2 6.1-10.8 10.2-1.3 2-2.5 4-3.6 6l-3.4 6.3c-1.3 2.3-2.4 4.1-3.5 5.6-4.2 5.9-9.9 9.5-16.6 9.5-3 0-5.4-1-7.1-2.9-1.6-1.8-2.4-4-2.4-6.6 0-2.4 0.6-4.7 1.8-7s2.9-4.2 5.1-5.7 4.5-2.3 7.1-2.3c2.4 0 4.6 0.7 6.5 2-1.6-0.7-3.1-1-4.6-1-2.5 0-4.9 0.6-7.3 1.9s-4.3 3-5.8 5.3-2.3 4.7-2.3 7.3c0 2.3 0.7 4.3 2.1 5.9 1.6 1.8 3.7 2.7 6.2 2.7 2 0 4.3-0.9 6-2.1 0.8-0.6 1.8-1.3 2.7-2.2 1-0.9 1.8-1.7 2.4-2.4s1.3-1.5 2.1-2.4 1.9-2.4 3.3-4.5 2.9-4.1 4.4-6.2 3.1-4.2 4.9-6.5c1.8-2.2 3.7-4.3 5.8-6.3s4.2-3.5 6.2-4.7c-2.4 0.1-4.5 0.3-6.1 0.5s-3.5 0.7-5.6 1.4c-1.8 0.6-3.7 1.4-5.8 2.8-3 1.9-5.4 4.6-5.4 7.9 0 2.1 1.4 3.7 3.6 3.8v0.1c-1.2 0-2.2-0.5-3-1.3-0.8-0.9-1.2-2-1.2-3.4 0-2.8 1.5-5.4 3.7-7.2 2.3-1.9 4.9-3.2 7.7-4 1-0.3 2.1-0.5 3.3-0.6 1.2-0.2 2.2-0.2 2.8-0.3 0.7 0 1.8-0.1 3.5-0.1h3c1.5-0.8 3-1.3 4.3-1.3 0.5 0.2 0.9 0.4 0.9 0.6z"/><path class="st0" d="m60.8 272c0-1.7 0.3-3.2 0.8-4.6 0.6-1.4 1.3-2.7 2.3-3.8s2.1-1.9 3.4-2.6c1.3-0.6 2.7-0.9 4.2-0.9s2.9 0.3 4.2 0.9 2.4 1.5 3.4 2.6 1.7 2.3 2.3 3.8c0.6 1.4 0.8 3 0.8 4.6 0 1.7-0.3 3.2-0.8 4.7-0.6 1.5-1.3 2.7-2.3 3.8s-2.1 1.9-3.4 2.6c-1.3 0.6-2.7 0.9-4.2 0.9s-2.9-0.3-4.2-0.9-2.4-1.5-3.4-2.6-1.7-2.4-2.3-3.8c-0.5-1.4-0.8-3-0.8-4.7zm10.7 11.2c1.2 0 2.3-0.3 3.4-0.9s2-1.4 2.8-2.4 1.4-2.2 1.9-3.6 0.7-2.8 0.7-4.4c0-1.5-0.2-3-0.7-4.3s-1.1-2.5-1.9-3.5-1.7-1.8-2.8-2.4-2.2-0.9-3.4-0.9-2.3 0.3-3.4 0.9-2 1.4-2.8 2.4-1.4 2.2-1.9 3.5-0.7 2.8-0.7 4.3 0.2 3 0.7 4.4 1.1 2.6 1.9 3.6 1.7 1.8 2.8 2.4c1 0.6 2.2 0.9 3.4 0.9z"/><path class="st0" d="m107.3 260.3h2.6l15.5 20v-17.7c-0.1-0.7-0.3-1.2-0.6-1.6s-0.8-0.7-1.3-0.7h4.5c-0.5 0-1 0.2-1.3 0.7-0.4 0.5-0.5 1.1-0.5 1.7v20.7h-0.7l-15.5-20.1v17.7c0 0.7 0.2 1.3 0.6 1.7 0.4 0.5 0.8 0.7 1.3 0.8h-4.5c0.5 0 0.9-0.3 1.3-0.7 0.3-0.4 0.5-1 0.6-1.6v-18.5c0-0.7-0.2-1.2-0.6-1.6-0.5-0.5-0.9-0.7-1.4-0.8z"/><path class="st0" d="m132.8 260.3h2.6l15.5 20v-17.7c-0.1-0.7-0.3-1.2-0.6-1.6s-0.8-0.7-1.3-0.7h4.5c-0.5 0-1 0.2-1.3 0.7-0.4 0.5-0.5 1.1-0.5 1.7v20.7h-0.7l-15.5-20.1v17.7c0 0.7 0.2 1.3 0.6 1.7 0.4 0.5 0.8 0.7 1.3 0.8h-4.5c0.5 0 0.9-0.3 1.3-0.7 0.3-0.4 0.5-1 0.6-1.6v-18.5c0-0.7-0.2-1.2-0.6-1.6-0.5-0.5-0.9-0.7-1.4-0.8z"/><path class="st0" d="m90.7 269.3c-0.3 0.7-0.5 1.3-0.6 1.9l1.8-5.1z"/><path class="st0" d="m87.7 283s0.7 0.7 1.2 0.7h-4.7s0.6 0 1.3-1.3c0.2-0.3 1.3-3 1.3-3 0.7-1.7 1.6-3.8 2.4-5.9h0.1c-0.5 1.2-0.8 2.4-1.2 3.6-0.5 1.8-0.8 3.3-0.8 4.5v0.1c-0.1 0.5 0.1 0.9 0.4 1.3z"/><path class="st0" d="m99.2 283c-0.3 0.4-0.7 0.6-1.2 0.6h6c-0.5-0.1-0.9-0.3-1.3-0.9-0.4-0.5-0.7-1.1-0.9-1.7l-7-19.4-0.7-1.9-0.7 1.9-0.2 0.4-0.2 0.6-0.9 2.5-0.3 0.8-1.8 5.1c-0.4 1.5-0.5 2.7-0.5 3.6 0.1 0.9 0.3 1.6 0.6 2.1 0.2 0.3 0.3 0.6 0.6 0.8 0.8 0.9 1.9 1.2 2.8 1.2 1.3 0 2.4-0.5 3.2-1.2 0.3-0.3 0.6-0.5 0.9-0.8l0.4-0.4 0.2 0.4 0.5 1.3 0.9 2.4c0.2 1.2 0.2 2-0.4 2.6zm-1.6-6c-0.3 0.3-0.6 0.5-0.9 0.8-0.8 0.5-1.8 1-3.1 1-0.8 0-1.8-0.3-2.5-1-0.2-0.2-0.4-0.5-0.6-0.8-0.4-0.7-0.6-1.5-0.6-2.7s0.3-2.8 1-4.8l1.5-4 0.9-2.3 0.3 0.8 0.4 1 4.2 11.5c-0.3 0.2-0.4 0.4-0.6 0.5z"/><path class="st0" d="m163.2 269.3c-0.3 0.7-0.5 1.3-0.6 1.9l1.8-5.1z"/><path class="st0" d="m160.1 283s0.7 0.7 1.2 0.7h-4.7s0.6 0 1.3-1.3c0.2-0.3 1.3-3 1.3-3 0.7-1.7 1.6-3.8 2.4-5.9h0.1c-0.5 1.2-0.8 2.4-1.2 3.6-0.5 1.8-0.8 3.3-0.8 4.5v0.1c-0.1 0.5 0.1 0.9 0.4 1.3z"/><path class="st0" d="m171.6 283c-0.3 0.4-0.7 0.6-1.2 0.6h6c-0.5-0.1-0.9-0.3-1.3-0.9-0.4-0.5-0.7-1.1-0.9-1.7l-7-19.4-0.7-1.9-0.7 1.9-0.2 0.4-0.2 0.6-0.9 2.5-0.3 0.8-1.8 5.1c-0.4 1.5-0.5 2.7-0.5 3.6 0.1 0.9 0.3 1.6 0.6 2.1 0.2 0.3 0.3 0.6 0.6 0.8 0.8 0.9 1.9 1.2 2.8 1.2 1.3 0 2.4-0.5 3.2-1.2 0.3-0.3 0.6-0.5 0.9-0.8l0.4-0.4 0.2 0.4 0.5 1.3 0.9 2.4c0.2 1.2 0.2 2-0.4 2.6 0.1 0 0.1 0 0 0zm-1.6-6c-0.3 0.3-0.6 0.5-0.9 0.8-0.8 0.5-1.8 1-3.1 1-0.8 0-1.8-0.3-2.5-1-0.2-0.2-0.4-0.5-0.6-0.8-0.4-0.7-0.6-1.5-0.6-2.7s0.3-2.8 1-4.8l1.5-4 0.9-2.3 0.3 0.8 0.4 1 4.2 11.5c-0.3 0.2-0.4 0.4-0.6 0.5z"/><path class="st0" d="m257.8 251.4c0 0.3-0.5 0.6-1.5 0.8-0.9 0.2-2 0.3-3.4 0.4-4.5 2.4-8.2 6.1-10.8 10.2-1.3 2-2.5 4-3.6 6l-3.4 6.3c-1.3 2.3-2.4 4.1-3.5 5.6-4.2 5.9-9.9 9.5-16.6 9.5-3 0-5.4-1-7.1-2.9-1.6-1.8-2.4-4-2.4-6.6 0-2.4 0.6-4.7 1.8-7s2.9-4.2 5.1-5.7 4.5-2.3 7.1-2.3c2.4 0 4.6 0.7 6.5 2-1.6-0.7-3.1-1-4.6-1-2.5 0-4.9 0.6-7.3 1.9s-4.3 3-5.8 5.3-2.3 4.7-2.3 7.3c0 2.3 0.7 4.3 2.1 5.9 1.6 1.8 3.7 2.7 6.2 2.7 2 0 4.3-0.9 6-2.1 0.8-0.6 1.8-1.3 2.7-2.2 1-0.9 1.8-1.7 2.4-2.4s1.3-1.5 2.1-2.4 1.9-2.4 3.3-4.5 2.9-4.1 4.4-6.2 3.1-4.2 4.9-6.5c1.8-2.2 3.7-4.3 5.8-6.3s4.2-3.5 6.2-4.7c-2.4 0.1-4.5 0.3-6.1 0.5s-3.5 0.7-5.6 1.4c-1.8 0.6-3.7 1.4-5.8 2.8-3 1.9-5.4 4.6-5.4 7.9 0 2.1 1.4 3.7 3.6 3.8v0.1c-1.2 0-2.2-0.5-3-1.3-0.8-0.9-1.2-2-1.2-3.4 0-2.8 1.5-5.4 3.7-7.2 2.3-1.9 4.9-3.2 7.7-4 1-0.3 2.1-0.5 3.3-0.6 1.2-0.2 2.2-0.2 2.8-0.3 0.7 0 1.8-0.1 3.5-0.1h3c1.5-0.8 3-1.3 4.3-1.3 0.6 0.2 0.9 0.3 0.9 0.6z"/><path class="st0" d="m267.1 261.5h12.3c0.9 0 1.8 0.2 2.6 0.5 0.8 0.4 1.5 0.8 2.1 1.4s1.1 1.3 1.4 2.1 0.5 1.7 0.5 2.6c0 1.5-0.4 2.9-1.3 4-0.9 1.2-2 2-3.3 2.4 1.4 0.4 2.5 1.1 3.3 2.1s1.3 2 1.3 3.2v2.7c0.1 0.6 0.3 1 0.6 1.4s0.7 0.5 1.2 0.5h-2.7c-0.5 0-0.8-0.2-0.9-0.5s-0.2-0.8-0.2-1.5v-2.8c0-0.7-0.2-1.4-0.5-2s-0.7-1.1-1.3-1.6c-0.5-0.4-1.1-0.8-1.8-1-0.7-0.3-1.4-0.4-2.2-0.4h-7.5v7.3c0.1 0.7 0.3 1.2 0.6 1.7s0.8 0.7 1.3 0.7h-5.6c0.5 0 0.9-0.2 1.3-0.7s0.6-1 0.6-1.7v-18.3c0-0.7-0.2-1.3-0.6-1.7-0.3-0.2-0.7-0.4-1.2-0.4zm3.7 12.7h8.6c0.7 0 1.3-0.2 1.8-0.5 0.6-0.3 1.1-0.7 1.5-1.3 0.4-0.5 0.8-1.2 1-1.9s0.4-1.5 0.4-2.3-0.1-1.6-0.4-2.3c-0.2-0.7-0.6-1.4-1-1.9s-0.9-1-1.5-1.3-1.2-0.5-1.8-0.5h-8.6z"/><path class="st0" d="m297.8 261.4c-0.5 0-0.9 0.3-1.3 0.7-0.4 0.5-0.5 1-0.5 1.7v14.9c0 0.7 0.2 1.3 0.5 1.9s0.8 1.1 1.4 1.6c0.6 0.4 1.3 0.8 2.1 1 0.8 0.3 1.7 0.4 2.6 0.4s1.8-0.1 2.7-0.4 1.6-0.6 2.3-1 1.2-1 1.6-1.6 0.6-1.2 0.6-1.9l0.2-15.5c-0.1-0.5-0.3-1-0.7-1.3-0.3-0.4-0.7-0.5-1.1-0.5h4.8c-0.5 0-0.9 0.2-1.3 0.7s-0.5 1-0.5 1.7v14.9c0 0.8-0.2 1.6-0.7 2.3-0.4 0.7-1.1 1.3-1.8 1.8-0.8 0.5-1.7 0.9-2.7 1.2s-2.1 0.5-3.3 0.5-2.3-0.2-3.3-0.5-1.9-0.7-2.7-1.2-1.4-1.1-1.8-1.8-0.7-1.5-0.7-2.3v-14.9c0-0.7-0.2-1.3-0.6-1.7-0.4-0.5-0.8-0.7-1.3-0.7z"/><path class="st0" d="m317.9 283.4v-5.3h0.1c0 0.7 0.2 1.5 0.7 2.2s1.1 1.3 1.9 1.9c0.8 0.5 1.6 1 2.6 1.3s1.9 0.5 2.9 0.5 1.8-0.1 2.7-0.4c0.8-0.3 1.6-0.7 2.2-1.2s1.1-1.1 1.5-1.7c0.4-0.7 0.5-1.3 0.5-2.1 0-0.7-0.2-1.4-0.5-2s-0.8-1.1-1.5-1.5c-0.6-0.4-1.4-0.8-2.2-1.1s-1.8-0.6-2.7-0.7c-1.1-0.2-2.1-0.5-3.1-0.8-1-0.4-1.8-0.8-2.6-1.3-0.7-0.5-1.3-1.1-1.8-1.8-0.4-0.7-0.7-1.5-0.7-2.3 0-0.9 0.2-1.7 0.6-2.4 0.4-0.8 1-1.4 1.7-2s1.6-1 2.6-1.3 2-0.5 3.2-0.5c1 0 1.9 0.2 2.9 0.5 1 0.4 1.9 0.8 2.7 1.4 0.8 0.1 1.3-0.1 1.3-0.8v5.6h-0.2c0-0.8-0.2-1.6-0.6-2.3s-0.9-1.4-1.5-1.9-1.4-1-2.2-1.3-1.7-0.5-2.5-0.5-1.6 0.1-2.4 0.4-1.4 0.7-2 1.2c-0.5 0.5-1 1.1-1.3 1.7-0.3 0.7-0.5 1.4-0.5 2.1s0.2 1.4 0.5 2 0.8 1.1 1.3 1.6 1.2 0.8 1.9 1.2c0.7 0.3 1.5 0.5 2.4 0.7 1.3 0.3 2.5 0.6 3.6 0.9 1.1 0.4 2 0.8 2.8 1.3s1.4 1.1 1.8 1.7c0.4 0.7 0.7 1.4 0.7 2.3 0 0.8-0.2 1.6-0.7 2.4s-1.1 1.4-1.9 2c-0.8 0.5-1.8 1-2.8 1.3-1.1 0.3-2.2 0.5-3.4 0.5s-2.4-0.2-3.6-0.6-2.3-0.9-3.3-1.5c-0.7-0.5-1-0.2-1.1 0.6z"/><path class="st0" d="m339.7 284.7v-0.8l14.5-21.7h-11.7c-0.3 0-0.6 0.1-0.9 0.2s-0.6 0.3-0.8 0.4l-0.6 0.6c-0.2 0.2-0.2 0.5-0.2 0.7l0.4-2.7h16.1v0.8l-14.5 21.7h12.6c0.6-0.1 1.1-0.3 1.7-0.6 0.5-0.3 0.8-0.7 0.8-1.2l-0.4 2.6z"/><path class="st0" d="m361.9 284.7c0.5 0 0.9-0.3 1.3-0.7 0.3-0.4 0.5-1 0.6-1.6v-18.5c-0.1-0.7-0.3-1.2-0.6-1.6s-0.8-0.7-1.3-0.7h16.8v2.7c0-0.5-0.2-0.9-0.7-1.3-0.4-0.4-1-0.6-1.7-0.6h-10.7v10.4h7.2c0.6-0.1 1.1-0.3 1.5-0.6 0.4-0.4 0.6-0.8 0.6-1.3v4.6c0-0.5-0.2-0.9-0.6-1.3-0.4-0.3-0.9-0.6-1.5-0.6h-7.2v10.5h10.8c0.6-0.1 1.1-0.3 1.5-0.6s0.6-0.8 0.6-1.3v2.7h-16.6z"/><path class="st0" d="m381.8 261.1h6c-0.4 0-0.7 0.1-1 0.4s-0.5 0.6-0.7 1l5.9 17.6 5.8-19.2 6.4 19.2 5.1-17c-0.1-0.6-0.3-1.1-0.6-1.5s-0.8-0.6-1.2-0.6h5.2c-0.5 0-1 0.2-1.5 0.6s-0.9 1-1.1 1.6l-6.4 21.2-6.5-19.4-5.7 19.4-7.2-21.5c-0.3-0.6-0.7-1-1.1-1.4-0.5-0.1-1-0.3-1.4-0.4z"/><path class="st0" d="m415.8 283.4v-5.3h0.1c0 0.7 0.2 1.5 0.7 2.2s1.1 1.3 1.9 1.9c0.8 0.5 1.6 1 2.6 1.3s1.9 0.5 2.9 0.5 1.8-0.1 2.7-0.4c0.8-0.3 1.6-0.7 2.2-1.2s1.1-1.1 1.5-1.7c0.4-0.7 0.5-1.3 0.5-2.1 0-0.7-0.2-1.4-0.5-2s-0.8-1.1-1.5-1.5c-0.6-0.4-1.4-0.8-2.2-1.1s-1.8-0.6-2.7-0.7c-1.1-0.2-2.1-0.5-3.1-0.8-1-0.4-1.8-0.8-2.6-1.3-0.7-0.5-1.3-1.1-1.8-1.8-0.4-0.7-0.7-1.5-0.7-2.3 0-0.9 0.2-1.7 0.6-2.4 0.4-0.8 1-1.4 1.7-2s1.6-1 2.6-1.3 2-0.5 3.2-0.5c1 0 1.9 0.2 2.9 0.5 1 0.4 1.9 0.8 2.7 1.4 0.8 0.1 1.3-0.1 1.3-0.8v5.6h-0.2c0-0.8-0.2-1.6-0.6-2.3s-0.9-1.4-1.5-1.9-1.4-1-2.2-1.3-1.7-0.5-2.5-0.5-1.6 0.1-2.4 0.4-1.4 0.7-2 1.2c-0.5 0.5-1 1.1-1.3 1.7-0.3 0.7-0.5 1.4-0.5 2.1s0.2 1.4 0.5 2 0.8 1.1 1.3 1.6 1.2 0.8 1.9 1.2c0.7 0.3 1.5 0.5 2.4 0.7 1.3 0.3 2.5 0.6 3.6 0.9 1.1 0.4 2 0.8 2.8 1.3s1.4 1.1 1.8 1.7c0.4 0.7 0.7 1.4 0.7 2.3 0 0.8-0.2 1.6-0.7 2.4s-1.1 1.4-1.9 2c-0.8 0.5-1.8 1-2.8 1.3-1.1 0.3-2.2 0.5-3.4 0.5s-2.4-0.2-3.6-0.6-2.3-0.9-3.3-1.5c-0.6-0.5-1-0.2-1.1 0.6z"/><path class="st0" d="m437.6 261.4h5.6c-0.5 0-0.9 0.2-1.3 0.7s-0.6 1.1-0.6 1.7v8.6l12.2-10.5c-0.3-0.4-0.8-0.6-1.2-0.6h5c-0.5 0-1.1 0.2-1.9 0.5-0.7 0.3-1.4 0.8-2.1 1.3l-7.9 6.8 9.2 12.1c0.3 0.3 0.5 0.6 0.9 0.9 0.3 0.3 0.7 0.6 1 0.8s0.7 0.4 1 0.6c0.3 0.1 0.6 0.2 0.9 0.2h-6.7c0.3 0 0.6-0.1 0.9-0.3s0.5-0.5 0.7-0.8l-9.2-12.2-2.7 2.3v8.6c0 0.7 0.2 1.3 0.6 1.7 0.4 0.5 0.8 0.7 1.3 0.7h-5.6c0.5 0 0.9-0.2 1.3-0.7 0.3-0.4 0.5-1 0.6-1.6v-18.5c-0.1-0.7-0.3-1.2-0.6-1.6-0.5-0.4-0.9-0.6-1.4-0.7z"/><path class="st0" d="m249.8 270.4c-0.3 0.7-0.5 1.3-0.6 1.9l1.8-5.1z"/><path class="st0" d="m246.8 284s0.7 0.7 1.2 0.7h-4.7s0.6 0 1.3-1.3c0.2-0.3 1.3-3 1.3-3 0.7-1.7 1.6-3.8 2.4-5.9h0.1c-0.5 1.2-0.8 2.4-1.2 3.6-0.5 1.8-0.8 3.3-0.8 4.5v0.1c-0.1 0.6 0.1 1 0.4 1.3z"/><path class="st0" d="m258.3 284.1c-0.3 0.4-0.7 0.6-1.2 0.6h6c-0.5-0.1-0.9-0.3-1.3-0.9-0.4-0.5-0.7-1.1-0.9-1.7l-7-19.4-0.7-1.9-0.7 1.9-0.2 0.4-0.2 0.6-0.9 2.5-0.3 0.8-1.8 5.1c-0.4 1.5-0.5 2.7-0.5 3.6 0.1 0.9 0.3 1.6 0.6 2.1 0.2 0.3 0.3 0.6 0.6 0.8 0.8 0.9 1.9 1.2 2.8 1.2 1.3 0 2.4-0.5 3.2-1.2 0.3-0.3 0.6-0.5 0.9-0.8l0.4-0.4 0.2 0.4 0.5 1.3 0.9 2.4c0.2 1.2 0.2 2-0.4 2.6zm-1.6-6c-0.3 0.3-0.6 0.5-0.9 0.8-0.8 0.5-1.8 1-3.1 1-0.8 0-1.8-0.3-2.5-1-0.2-0.2-0.4-0.5-0.6-0.8-0.4-0.7-0.6-1.5-0.6-2.7s0.3-2.8 1-4.8l1.5-4 0.9-2.3 0.3 0.8 0.4 1 4.2 11.5c-0.3 0.2-0.4 0.3-0.6 0.5z"/><path class="st0" d="m467.3 270.3c-0.3 0.7-0.5 1.3-0.6 1.9l1.8-5.1z"/><path class="st0" d="m464.3 283.9s0.7 0.7 1.2 0.7h-4.7s0.6 0 1.3-1.3c0.2-0.3 1.3-3 1.3-3 0.7-1.7 1.6-3.8 2.4-5.9h0.1c-0.5 1.2-0.8 2.4-1.2 3.6-0.5 1.8-0.8 3.3-0.8 4.5v0.1c-0.1 0.6 0 1 0.4 1.3z"/><path class="st0" d="m475.8 284c-0.3 0.4-0.7 0.6-1.2 0.6h6c-0.5-0.1-0.9-0.3-1.3-0.9-0.4-0.5-0.7-1.1-0.9-1.7l-7-19.4-0.7-1.9-0.7 1.9-0.2 0.4-0.2 0.6-0.9 2.5-0.3 0.8-1.8 5.1c-0.4 1.5-0.5 2.7-0.5 3.6 0.1 0.9 0.3 1.6 0.6 2.1 0.2 0.3 0.3 0.6 0.6 0.8 0.8 0.9 1.9 1.2 2.8 1.2 1.3 0 2.4-0.5 3.2-1.2 0.3-0.3 0.6-0.5 0.9-0.8l0.4-0.4 0.2 0.4 0.5 1.3 0.9 2.4c0.2 1.2 0.1 2-0.4 2.6zm-1.7-6c-0.3 0.3-0.6 0.5-0.9 0.8-0.8 0.5-1.8 1-3.1 1-0.8 0-1.8-0.3-2.5-1-0.2-0.2-0.4-0.5-0.6-0.8-0.4-0.7-0.6-1.5-0.6-2.7s0.3-2.8 1-4.8l1.5-4 0.9-2.3 0.3 0.8 0.4 1 4.2 11.5c-0.2 0.2-0.4 0.3-0.6 0.5z"/></g></g></svg>
