<?xml version="1.0" encoding="UTF-8" standalone="no"?>
<!-- Generator: Adobe Illustrator 25.4.8, SVG Export Plug-In . SVG Version: 6.00 Build 0)  -->

<svg
   version="1.1"
   id="Warstwa_1"
   x="0px"
   y="0px"
   viewBox="0 0 500 500"
   style="enable-background:new 0 0 500 500;"
   xml:space="preserve"
   sodipodi:docname="logo podrzędne svg 2.svg"
   inkscape:version="1.2 (dc2aeda, 2022-05-15)"
   xmlns:inkscape="http://www.inkscape.org/namespaces/inkscape"
   xmlns:sodipodi="http://sodipodi.sourceforge.net/DTD/sodipodi-0.dtd"
   xmlns="http://www.w3.org/2000/svg"
   xmlns:svg="http://www.w3.org/2000/svg"><defs
   id="defs19" /><sodipodi:namedview
   id="namedview17"
   pagecolor="#ffffff"
   bordercolor="#000000"
   borderopacity="0.25"
   inkscape:showpageshadow="2"
   inkscape:pageopacity="0.0"
   inkscape:pagecheckerboard="0"
   inkscape:deskcolor="#d1d1d1"
   showgrid="false"
   inkscape:zoom="0.472"
   inkscape:cx="251.05932"
   inkscape:cy="250"
   inkscape:window-width="1343"
   inkscape:window-height="456"
   inkscape:window-x="0"
   inkscape:window-y="25"
   inkscape:window-maximized="0"
   inkscape:current-layer="Warstwa_1" />
<style
   type="text/css"
   id="style2">
	.st0{fill:#FFFFFF;}
</style>
<g
   id="g6"
   transform="matrix(1.8044412,0,0,1.8172037,-212.94998,-202.5561)">
	<path
   class="st0"
   d="m 376.3,194 c -5.9,0 -12.6,2 -19.7,5.9 -1.6,0 -6.2,0 -13.9,0.1 -7.7,0 -13,0.1 -16.1,0.3 -3,0.1 -7.4,0.4 -13,1.2 -5.6,0.6 -10.7,1.5 -15.3,2.8 -4.6,1.2 -9,2.8 -13.4,4.7 1.8,-3.3 3.7,-6.6 5.7,-9.9 2.7,-4.5 5.6,-9 8.6,-13.6 12.3,-19 29.4,-36 50.1,-47.1 6.5,-0.1 11.7,-0.7 15.9,-1.7 4.8,-1 7.1,-2.2 7.1,-3.7 0,-1.2 -1.4,-1.8 -4.3,-1.8 -6,0 -12.6,2.1 -19.7,6 -1.6,0 -6.2,0 -13.9,0.1 -7.6,0 -13,0.1 -16.1,0.3 -3,0.1 -7.4,0.4 -13,1.2 -5.7,0.6 -10.7,1.5 -15.4,2.7 -12.7,3.5 -25,9.5 -35.4,18.2 -10.4,8.5 -17.2,20.5 -17.2,33.2 0,6.2 1.9,11.5 5.5,15.5 3.7,3.9 8.4,5.9 14,6.1 v -0.6 c -10.4,-0.1 -16.8,-7.5 -16.8,-17.3 0.1,-15.1 11.1,-27.9 24.9,-36.5 9.4,-6.4 18,-10.1 26.6,-13 9.7,-3.2 18.4,-5.3 25.9,-6.4 7.6,-1 17.1,-1.7 28.2,-2.2 -9.4,5.5 -19.1,12.7 -28.8,21.8 -9.7,9.1 -18.7,18.8 -26.9,29.1 -4,4.9 -7.8,9.8 -11.5,14.6 -3.9,5.1 -7.6,10 -11,14.9 -1.6,1.1 -3.1,2.3 -4.6,3.6 -8.4,6.9 -14.5,16.1 -16.5,26.1 -0.4,2.3 -0.7,4.7 -0.7,7.1 0,5.3 1.4,9.9 4,13.6 0.4,0.7 0.9,1.3 1.5,1.9 3.7,3.9 8.4,5.9 14,6.1 v -0.6 c -6.9,-0.1 -12.1,-3.4 -14.7,-8.5 -1.4,-2.6 -2.1,-5.6 -2.1,-8.9 0.1,-15 11.1,-27.9 24.9,-36.5 2,-1.4 4,-2.6 6,-3.7 7.1,-4.2 13.9,-7 20.7,-9.2 9.7,-3.2 18.4,-5.4 25.9,-6.4 7.6,-1 17.1,-1.8 28.2,-2.2 -9.4,5.5 -19.1,12.7 -28.8,21.9 -9.7,9.1 -18.7,18.8 -26.9,29.1 -8.2,10.3 -15.9,20.3 -22.7,29.8 -6.8,9.4 -13.6,19 -20.2,28.5 -6.6,9.4 -11.7,16.3 -15.2,20.5 -3.5,4.2 -6.7,7.9 -9.6,11.1 -2.9,3.2 -6.5,6.8 -11,10.9 -4.5,4.2 -8.7,7.5 -12.6,10.3 -7.9,5.4 -18.5,9.7 -27.8,9.7 -11.7,0 -21.2,-4.2 -28.7,-12.4 -6.5,-7.4 -9.8,-16.5 -9.8,-27.2 0,-10.1 2.5,-19.8 7.5,-28.8 2,1.4 4.1,2.5 6.4,3.5 5.6,2.4 12,3.7 19.3,3.7 28.3,0 53.6,-15.1 72.4,-38 -3.7,-4.5 -5.9,-9.9 -6.5,-15.9 -1.2,1.6 -3.6,4.6 -4.6,6 -1.3,1.7 -2.4,3.2 -3.5,4.4 -0.4,0.4 -0.7,0.9 -1.1,1.3 -8.3,-5.2 -17.5,-7.8 -27.8,-7.8 -11.7,0 -22.6,3.5 -32.6,10.6 -10,6.9 -17.8,15.8 -23.4,26.3 -0.4,0.9 -0.9,1.7 -1.2,2.6 -1.2,-1 -2.4,-2.2 -3.5,-3.4 -0.6,-0.7 -1.2,-1.4 -1.8,-2.2 -5.3,-6.9 -8,-15.3 -8,-25 0,-12 3.5,-23.3 10.6,-33.7 7.1,-10.6 16,-18.7 26.9,-24.6 10.9,-5.9 22.1,-8.8 33.6,-8.8 6.8,0 13.7,1.6 21.1,4.6 -8.8,-6.2 -18.8,-9.2 -29.9,-9.2 -11.7,0 -22.6,3.5 -32.5,10.5 -10,7 -17.8,15.8 -23.4,26.3 -5.5,10.6 -8.3,21.4 -8.3,32.3 0,11.3 3.2,20.9 9.5,28.8 0.4,0.6 0.9,1.1 1.4,1.7 1.2,1.4 2.6,2.7 3.9,3.8 -4.3,9.4 -6.5,19 -6.5,28.6 0,12.1 3.6,22.3 10.8,30.5 7.8,8.8 18.7,13.3 32.7,13.3 31.1,0 57.1,-16.5 76.7,-43.7 4.9,-6.8 10.3,-15.5 16,-25.9 L 291,276 c 4.9,-9 10.4,-18.2 16.6,-27.6 12.3,-19 29.3,-36 50,-47.2 6.5,-0.1 11.7,-0.7 15.9,-1.7 4.8,-1 7.1,-2.2 7.1,-3.7 0,-1.2 -1.4,-1.8 -4.3,-1.8 z M 151.4,299.7 c 7.1,-10.5 16.1,-18.7 26.9,-24.6 10.8,-5.9 22.1,-8.8 33.5,-8.8 6,0 12.2,1.2 18.6,3.6 -1.7,2.1 -3.4,4.1 -5,5.9 -1,1.2 -2.1,2.4 -3.1,3.5 -2.9,3.2 -6.5,6.8 -11,10.8 -4.5,4.2 -8.7,7.5 -12.6,10.3 -7.9,5.3 -18.5,9.7 -27.8,9.7 -5.8,0 -11,-1 -15.7,-3 -2.2,-0.9 -4.4,-2.1 -6.4,-3.5 0.9,-1.3 1.7,-2.6 2.6,-3.9 z"
   id="path4" />
</g>

<g
   id="g14"
   transform="translate(366.52542,57.20339)">
	<path
   class="st0"
   d="M -60.715439,440.50677 H -172.1354 c -106.0098,0 -192.27985,-72.30116 -192.27985,-161.14581 V 106.4509 c 0,-88.844652 86.27005,-161.145815 192.27985,-161.145815 h 111.419961 c 106.009799,0 192.279849,72.301163 192.279849,161.145815 v 172.91006 c 0,88.84465 -86.27005,161.14581 -192.279849,161.14581 z M -172.1354,-51.508762 c -103.96272,0 -188.47812,70.830631 -188.47812,157.959662 v 172.91006 c 0,87.12903 84.5154,157.95966 188.47812,157.95966 h 111.419961 c 103.962713,0 188.478119,-70.83063 188.478119,-157.95966 V 106.4509 c 0,-87.129031 -84.515406,-157.959662 -188.478119,-157.959662 z"
   id="path12"
   style="stroke-width:1.3386" />
</g>
</svg>
